
<svg viewBox="0 0 141.73 141.73" fill="none" xmlns="http://www.w3.org/2000/svg">
      <defs>
          <linearGradient
            id="linear-gradient"
            x1="22.1"
            y1="21.51"
            x2="120.47"
            y2="119.88"
            gradientUnits="userSpaceOnUse"
          >
            <stop offset="0" stop-color="#0bc6df" />
            <stop offset="0.13" stop-color="#0ab3df" />
            <stop offset="0.4" stop-color="#0781de" />
            <stop offset="0.77" stop-color="#0332de" />
            <stop offset="0.99" stop-color="#00d" />
          </linearGradient>
        </defs>
        <rect
        
          fill="cls-1"
          x="1.72"
          y="1.14"
          width="139.12"
          height="139.12"
          rx="69.56"
          ry="69.56"
        />
        <path
          fill="#fff"
          d="M122.24,73.77a.78.78,0,0,1,.5.31l1.12,1.22a.84.84,0,0,1,0,1.19,8,8,0,0,1-5.4,1.76c-5,0-8.28-3.15-8.28-7.47s3.29-7.47,7.76-7.47c3.62,0,6.68,2.11,7.35,5.8a1.57,1.57,0,0,1-1.25,1.8l-9.34,1.81a3.83,3.83,0,0,0,3.86,2.15,5,5,0,0,0,2.86-.79l.32-.19A.77.77,0,0,1,122.24,73.77Zm-1-5.17a3.37,3.37,0,0,0-3.3-2.11,3.48,3.48,0,0,0-3.61,3.41Z"
        />
        <path
          fill="#fff"
          d="M93.28,88.92A3.09,3.09,0,0,1,98.64,87l-.83.77a1.81,1.81,0,0,0-1.41-.66,1.8,1.8,0,1,0,0,3.59,1.79,1.79,0,0,0,1.41-.67l.83.77a3.09,3.09,0,0,1-5.36-1.9Z"
        />
        <path fill="#fff" d="M101.81,86.11h1.3v4.56h2.82v1.06h-4.11Z" />
        <path
          fill="#fff"
          d="M108.83,89.26V86.11h1.3v3.1c0,1.07.47,1.51,1.25,1.51s1.25-.44,1.25-1.51v-3.1h1.28v3.14a2.54,2.54,0,1,1-5.09,0Z"
        />
        <path
          fill="#fff"
          d="M122.65,90.2c0,1-.77,1.53-2.25,1.53h-2.9V86.11h2.74c1.4,0,2.12.59,2.12,1.46a1.35,1.35,0,0,1-.75,1.24A1.39,1.39,0,0,1,122.65,90.2Zm-3.86-3.1v1.32h1.29c.63,0,1-.22,1-.67s-.34-.66-1-.66Zm2.55,3c0-.47-.36-.7-1-.7h-1.52v1.39h1.52C121,90.75,121.34,90.54,121.34,90.06Z"
        />
        <path
          fill="#fff"
          d="M30.5,73.77a.78.78,0,0,1,.5.31l1.12,1.22a.84.84,0,0,1,0,1.19,8,8,0,0,1-5.4,1.76c-5,0-8.28-3.15-8.28-7.47s3.29-7.47,7.76-7.47c3.62,0,6.68,2.11,7.35,5.8a1.57,1.57,0,0,1-1.25,1.8L23,72.72a3.83,3.83,0,0,0,3.86,2.15,5,5,0,0,0,2.86-.79l.32-.19A.77.77,0,0,1,30.5,73.77Zm-1-5.17a3.37,3.37,0,0,0-3.3-2.11,3.48,3.48,0,0,0-3.61,3.41Z"
        />
        <path
          fill="#fff"
          d="M51.45,69.73v7.44a.85.85,0,0,1-.85.85H48.1a.85.85,0,0,1-.85-.85V70.38C47.24,68,46.17,67,44.31,67c-2,0-3.48,1.24-3.48,3.9v6.31A.85.85,0,0,1,40,78H37.49a.85.85,0,0,1-.85-.85V64.39a.85.85,0,0,1,.85-.85h2.2c.73,0,1,.38,1,1v.69a6.34,6.34,0,0,1,4.79-1.91C48.86,63.32,51.45,65.32,51.45,69.73Z"
        />
        <path
          fill="#fff"
          d="M55.22,70.78c0-4.36,3.37-7.46,8.08-7.46a6.87,6.87,0,0,1,6.09,2.94A.83.83,0,0,1,69,67.42l-1.85,1a.86.86,0,0,1-1.08-.27,3.5,3.5,0,0,0-2.84-1.37,4,4,0,0,0,0,8,3.47,3.47,0,0,0,2.84-1.36.86.86,0,0,1,1.09-.27l1.83,1a.87.87,0,0,1,.28,1.26,7,7,0,0,1-6,2.81C58.59,78.24,55.22,75.15,55.22,70.78Z"
        />
        <path
          fill="#fff"
          d="M72.21,70.9c0-4.36,3.37-7.46,8-7.46s7.94,3.1,7.94,7.46-3.34,7.46-7.94,7.46S72.21,75.26,72.21,70.9Zm11.66,0c0-2.5-1.59-4-3.69-4a4,4,0,0,0,0,8C82.28,74.91,83.87,73.4,83.87,70.9Z"
        />
        <path
          fill="#fff"
          d="M106.89,60.85V77.17A.85.85,0,0,1,106,78H103.8a.89.89,0,0,1-.92-.91v-.76a5.57,5.57,0,0,1-4.52,1.88,7,7,0,0,1-7.24-7.46,7,7,0,0,1,7.24-7.46,5.56,5.56,0,0,1,4.33,1.75V60.85a.85.85,0,0,1,.85-.85H106A.85.85,0,0,1,106.89,60.85Zm-4.12,9.93a3.71,3.71,0,1,0-3.69,4A3.67,3.67,0,0,0,102.77,70.78Z"
        />
        <path
          fill="#fff"
          d="M118.15,34.47A1.15,1.15,0,1,0,117,35.63,1.15,1.15,0,0,0,118.15,34.47Zm0,18.2A1.15,1.15,0,1,0,117,53.83,1.15,1.15,0,0,0,118.15,52.68Zm0,54.61a1.15,1.15,0,1,0-1.15,1.15A1.15,1.15,0,0,0,118.15,107.29ZM99.95,52.68a1.15,1.15,0,1,0-1.15,1.15A1.15,1.15,0,0,0,99.95,52.68Zm0,54.61a1.15,1.15,0,1,0-1.15,1.15A1.15,1.15,0,0,0,99.95,107.29ZM81.75,34.47a1.15,1.15,0,1,0-1.15,1.15A1.15,1.15,0,0,0,81.75,34.47Zm0,18.2a1.15,1.15,0,1,0-1.15,1.15A1.15,1.15,0,0,0,81.75,52.68Zm0,36.41a1.15,1.15,0,1,0-1.15,1.15A1.15,1.15,0,0,0,81.75,89.09Zm0,18.2a1.15,1.15,0,1,0-1.15,1.15A1.15,1.15,0,0,0,81.75,107.29ZM63.54,34.47a1.15,1.15,0,1,0-1.15,1.15A1.15,1.15,0,0,0,63.54,34.47Zm0,18.2a1.15,1.15,0,1,0-1.15,1.15A1.15,1.15,0,0,0,63.54,52.68Zm0,36.41a1.15,1.15,0,1,0-1.15,1.15A1.15,1.15,0,0,0,63.54,89.09Zm-18.2,0a1.15,1.15,0,1,0-1.15,1.15A1.15,1.15,0,0,0,45.34,89.09Zm0,18.2a1.15,1.15,0,1,0-1.15,1.15A1.15,1.15,0,0,0,45.34,107.29ZM27.14,34.47A1.15,1.15,0,1,0,26,35.63,1.15,1.15,0,0,0,27.14,34.47Zm0,18.2A1.15,1.15,0,1,0,26,53.83,1.15,1.15,0,0,0,27.14,52.68Zm0,36.41A1.15,1.15,0,1,0,26,90.24,1.15,1.15,0,0,0,27.14,89.09Z"
        />
</svg>
