<svg width="360" height="149" viewBox="0 0 360 149" fill="none" xmlns="http://www.w3.org/2000/svg">
<rect width="360" height="149" rx="8" fill="#FF7966"/>
<path d="M340.495 133.8L338.473 133.529L338.202 131.506C338.171 131.275 337.838 131.275 337.807 131.506L337.535 133.529L335.513 133.8C335.282 133.831 335.282 134.164 335.513 134.195L337.535 134.466L337.807 136.489C337.838 136.72 338.171 136.72 338.202 136.489L338.473 134.466L340.495 134.195C340.727 134.164 340.727 133.831 340.495 133.8Z" fill="white"/>
<path d="M295.495 133.8L293.473 133.529L293.202 131.506C293.171 131.275 292.838 131.275 292.807 131.506L292.535 133.529L290.513 133.8C290.282 133.831 290.282 134.164 290.513 134.195L292.535 134.466L292.807 136.489C292.838 136.72 293.171 136.72 293.202 136.489L293.473 134.466L295.495 134.195C295.727 134.164 295.727 133.831 295.495 133.8Z" fill="white"/>
<path d="M250.495 133.8L248.473 133.529L248.202 131.506C248.171 131.275 247.838 131.275 247.807 131.506L247.535 133.529L245.513 133.8C245.282 133.831 245.282 134.164 245.513 134.195L247.535 134.466L247.807 136.489C247.838 136.72 248.171 136.72 248.202 136.489L248.473 134.466L250.495 134.195C250.727 134.164 250.727 133.831 250.495 133.8Z" fill="white"/>
<path d="M205.495 133.8L203.473 133.529L203.202 131.506C203.171 131.275 202.838 131.275 202.807 131.506L202.535 133.529L200.513 133.8C200.282 133.831 200.282 134.164 200.513 134.195L202.535 134.466L202.807 136.489C202.838 136.72 203.171 136.72 203.202 136.489L203.473 134.466L205.495 134.195C205.727 134.164 205.727 133.831 205.495 133.8Z" fill="white"/>
<path d="M160.495 133.8L158.473 133.529L158.202 131.506C158.171 131.275 157.838 131.275 157.807 131.506L157.535 133.529L155.513 133.8C155.282 133.831 155.282 134.164 155.513 134.195L157.535 134.466L157.807 136.489C157.838 136.72 158.171 136.72 158.202 136.489L158.473 134.466L160.495 134.195C160.727 134.164 160.727 133.831 160.495 133.8Z" fill="white"/>
<path d="M115.495 133.8L113.473 133.529L113.202 131.506C113.171 131.275 112.838 131.275 112.807 131.506L112.535 133.529L110.513 133.8C110.282 133.831 110.282 134.164 110.513 134.195L112.535 134.466L112.807 136.489C112.838 136.72 113.171 136.72 113.202 136.489L113.473 134.466L115.495 134.195C115.727 134.164 115.727 133.831 115.495 133.8Z" fill="white"/>
<path d="M70.4954 133.8L68.4732 133.529L68.2021 131.506C68.171 131.275 67.8376 131.275 67.8065 131.506L67.5354 133.529L65.5132 133.8C65.2821 133.831 65.2821 134.164 65.5132 134.195L67.5354 134.466L67.8065 136.489C67.8376 136.72 68.171 136.72 68.2021 136.489L68.4732 134.466L70.4954 134.195C70.7265 134.164 70.7265 133.831 70.4954 133.8Z" fill="white"/>
<path d="M25.4954 133.8L23.4732 133.529L23.2021 131.506C23.171 131.275 22.8376 131.275 22.8065 131.506L22.5354 133.529L20.5132 133.8C20.2821 133.831 20.2821 134.164 20.5132 134.195L22.5354 134.466L22.8065 136.489C22.8376 136.72 23.171 136.72 23.2021 136.489L23.4732 134.466L25.4954 134.195C25.7265 134.164 25.7265 133.831 25.4954 133.8Z" fill="white"/>
<path d="M340.495 15.7997L338.473 15.5286L338.202 13.5063C338.171 13.2752 337.838 13.2752 337.807 13.5063L337.535 15.5286L335.513 15.7997C335.282 15.8308 335.282 16.1641 335.513 16.1952L337.535 16.4663L337.807 18.4886C337.838 18.7197 338.171 18.7197 338.202 18.4886L338.473 16.4663L340.495 16.1952C340.727 16.1641 340.727 15.8308 340.495 15.7997Z" fill="white"/>
<path d="M295.495 15.7997L293.473 15.5286L293.202 13.5063C293.171 13.2752 292.838 13.2752 292.807 13.5063L292.535 15.5286L290.513 15.7997C290.282 15.8308 290.282 16.1641 290.513 16.1952L292.535 16.4663L292.807 18.4886C292.838 18.7197 293.171 18.7197 293.202 18.4886L293.473 16.4663L295.495 16.1952C295.727 16.1641 295.727 15.8308 295.495 15.7997Z" fill="white"/>
<path d="M250.495 15.7997L248.473 15.5286L248.202 13.5063C248.171 13.2752 247.838 13.2752 247.807 13.5063L247.535 15.5286L245.513 15.7997C245.282 15.8308 245.282 16.1641 245.513 16.1952L247.535 16.4663L247.807 18.4886C247.838 18.7197 248.171 18.7197 248.202 18.4886L248.473 16.4663L250.495 16.1952C250.727 16.1641 250.727 15.8308 250.495 15.7997Z" fill="white"/>
<path d="M205.495 15.7997L203.473 15.5286L203.202 13.5063C203.171 13.2752 202.838 13.2752 202.807 13.5063L202.535 15.5286L200.513 15.7997C200.282 15.8308 200.282 16.1641 200.513 16.1952L202.535 16.4663L202.807 18.4886C202.838 18.7197 203.171 18.7197 203.202 18.4886L203.473 16.4663L205.495 16.1952C205.727 16.1641 205.727 15.8308 205.495 15.7997Z" fill="white"/>
<path d="M160.495 15.7997L158.473 15.5286L158.202 13.5063C158.171 13.2752 157.838 13.2752 157.807 13.5063L157.535 15.5286L155.513 15.7997C155.282 15.8308 155.282 16.1641 155.513 16.1952L157.535 16.4663L157.807 18.4886C157.838 18.7197 158.171 18.7197 158.202 18.4886L158.473 16.4663L160.495 16.1952C160.727 16.1641 160.727 15.8308 160.495 15.7997Z" fill="white"/>
<path d="M115.495 15.7997L113.473 15.5286L113.202 13.5063C113.171 13.2752 112.838 13.2752 112.807 13.5063L112.535 15.5286L110.513 15.7997C110.282 15.8308 110.282 16.1641 110.513 16.1952L112.535 16.4663L112.807 18.4886C112.838 18.7197 113.171 18.7197 113.202 18.4886L113.473 16.4663L115.495 16.1952C115.727 16.1641 115.727 15.8308 115.495 15.7997Z" fill="white"/>
<path d="M70.4954 15.7997L68.4732 15.5286L68.2021 13.5063C68.171 13.2752 67.8376 13.2752 67.8065 13.5063L67.5354 15.5286L65.5132 15.7997C65.2821 15.8308 65.2821 16.1641 65.5132 16.1952L67.5354 16.4663L67.8065 18.4886C67.8376 18.7197 68.171 18.7197 68.2021 18.4886L68.4732 16.4663L70.4954 16.1952C70.7265 16.1641 70.7265 15.8308 70.4954 15.7997Z" fill="white"/>
<path d="M25.4954 15.7997L23.4732 15.5286L23.2021 13.5063C23.171 13.2752 22.8376 13.2752 22.8065 13.5063L22.5354 15.5286L20.5132 15.7997C20.2821 15.8308 20.2821 16.1641 20.5132 16.1952L22.5354 16.4663L22.8065 18.4886C22.8376 18.7197 23.171 18.7197 23.2021 18.4886L23.4732 16.4663L25.4954 16.1952C25.7265 16.1641 25.7265 15.8308 25.4954 15.7997Z" fill="white"/>
<path d="M97.6721 47.3911C95.3694 47.3911 93.6948 47.9466 92.2722 49.2281L89.7599 51.4492C89.5505 51.6206 89.1317 51.7486 88.8392 51.4916C88.5458 51.2355 88.5043 50.8937 88.7552 50.552L90.0948 48.5012C90.3043 48.2018 90.1373 47.8177 89.7599 47.8177H86.5364C86.16 47.8177 85.8666 48.1171 85.8666 48.5012V68.4961C85.8666 68.8803 86.16 69.1797 86.5364 69.1797H89.8854C90.2619 69.1797 90.5552 68.8803 90.5552 68.4961V57.2172C90.5552 52.048 94.7835 51.2364 96.3741 51.2364C99.7646 51.2364 100.979 53.7146 100.979 55.5939V68.4961C100.979 68.8803 101.272 69.1797 101.649 69.1797H104.998C105.374 69.1797 105.667 68.8803 105.667 68.4961V55.1665C105.667 50.3815 102.612 47.3911 97.6721 47.3911Z" fill="white"/>
<path d="M119.314 47.3054C112.825 47.3054 108.681 51.3645 108.681 56.8754V59.9091C108.681 65.7194 112.825 69.6928 119.314 69.6928C125.049 69.6928 129.067 66.6591 129.486 62.5577C129.529 62.1302 129.235 61.8317 128.816 61.8317H125.551C125.258 61.8317 125.007 62.0031 124.923 62.3016C124.504 63.6687 122.537 65.7194 119.314 65.7194C116.09 65.7194 113.076 63.3269 113.118 59.9091L113.16 56.1071C113.201 53.2447 116.132 51.2797 119.314 51.2797C122.202 51.2797 125.007 52.9462 125.299 55.6805C125.324 55.9967 125.111 56.2819 124.805 56.342L115.419 58.201C115.043 58.2867 114.75 58.6285 114.75 59.0551V59.0975C114.75 59.4816 115.126 59.8234 115.67 59.8234H129.15C129.521 59.8234 129.82 59.517 129.82 59.1399V56.4488C129.82 51.3653 125.508 47.3063 119.313 47.3063L119.314 47.3054Z" fill="white"/>
<path d="M142.672 47.3054C137.439 47.3054 132.918 50.4239 132.918 54.5253C132.918 54.8671 133.212 55.1232 133.588 55.1232H136.979C137.314 55.1232 137.565 54.8671 137.607 54.5253C137.942 52.6459 140.161 51.2788 142.547 51.2788C145.393 51.2788 147.319 53.0734 147.319 56.1495V59.8667C147.319 63.6687 144.556 65.5914 141.123 65.5914C138.444 65.5914 136.895 64.566 136.895 62.8995C136.895 61.4467 137.649 60.2076 140.746 59.4816L145.225 58.2426C145.685 58.1145 145.853 57.7294 145.769 57.3029C145.728 56.9611 145.351 56.7897 145.016 56.7897H140.369C136.434 56.7897 132.457 59.3527 132.457 63.1123V63.7102C132.457 67.5555 136.016 69.563 140.076 69.563C142.671 69.563 144.89 68.5376 146.271 67.3418L148.323 65.5472C148.658 65.2478 148.993 65.2478 149.285 65.5472C149.536 65.8033 149.452 66.1884 149.243 66.4869L147.987 68.4952C147.778 68.7946 147.945 69.1788 148.322 69.1788H151.336C151.713 69.1788 152.006 68.8794 152.006 68.4952V55.5498C152.006 50.5943 148.532 47.3045 142.67 47.3045L142.672 47.3054Z" fill="white"/>
<path d="M170.091 47.8186H165.402C163.77 47.8186 162.179 48.8439 161.048 49.8269L159.207 51.4501C158.998 51.6215 158.62 51.7495 158.369 51.5358C158.076 51.3221 157.95 50.8946 158.202 50.5528L159.542 48.5021C159.751 48.2027 159.584 47.8186 159.207 47.8186H156.067C155.691 47.8186 155.398 48.1179 155.398 48.5021V68.497C155.398 68.8812 155.691 69.1806 156.067 69.1806H159.5C159.877 69.1806 160.17 68.8812 160.17 68.497V58.2434C160.17 53.8426 161.929 51.8776 165.738 51.8776H170.092C170.468 51.8776 170.762 51.5782 170.762 51.194V48.5021C170.762 48.1179 170.467 47.8186 170.091 47.8186Z" fill="white"/>
<path d="M73.2848 43C72.1598 43 71.1153 43.5953 70.5259 44.5738L64.1766 54.1941C63.9698 54.5112 64.0537 54.9386 64.3644 55.1497C64.6162 55.321 64.9494 55.2998 65.1787 55.0985L71.4285 49.5663C71.5324 49.471 71.6925 49.4807 71.7859 49.5867C71.8283 49.6352 71.8508 49.6979 71.8508 49.7624V67.083C71.8508 67.2261 71.7375 67.3409 71.5973 67.3409C71.522 67.3409 71.451 67.3074 71.4034 67.2482L52.5113 44.1693C51.8968 43.4275 50.9934 43 50.0415 43H49.3812C47.5942 43 46.1455 44.4784 46.1455 46.3022V70.697C46.1455 72.5207 47.5942 73.9991 49.3812 73.9991C50.5062 73.9991 51.5507 73.4039 52.14 72.4253L58.4893 62.805C58.6962 62.4879 58.6122 62.0605 58.3015 61.8494C58.0497 61.6781 57.7165 61.6993 57.4872 61.9006L51.2374 67.4328C51.1336 67.5282 50.9735 67.5184 50.88 67.4125C50.8376 67.3639 50.8151 67.3012 50.816 67.2367V49.9125C50.816 49.7695 50.9293 49.6547 51.0695 49.6547C51.144 49.6547 51.2158 49.6882 51.2634 49.7474L70.153 72.8307C70.7683 73.5717 71.6717 73.9991 72.6228 74H73.2831C75.0701 74.0009 76.5196 72.5233 76.5213 70.6996V46.3022C76.5205 44.4784 75.0718 43 73.2848 43Z" fill="white"/>
<path d="M182.823 47.7691V57.2472H194.097V47.7691H196.784V69.23H194.097V59.6618H182.823V69.23H180.151V47.7691H182.823Z" fill="white"/>
<path d="M211.372 47.3522C217.607 47.3522 221.857 51.3759 221.857 58.4996C221.857 65.6232 217.607 69.6469 211.372 69.6469C205.137 69.6469 200.887 65.6232 200.887 58.4996C200.887 51.3759 205.137 47.3522 211.372 47.3522ZM211.372 67.2924C216.06 67.2924 219.126 64.1032 219.126 58.4996C219.126 52.8959 216.059 49.7068 211.372 49.7068C206.685 49.7068 203.618 52.8959 203.618 58.4996C203.618 64.1032 206.685 67.2924 211.372 67.2924Z" fill="white"/>
<path d="M242.2 53.7755C242.2 57.6208 239.44 59.7819 236.037 59.7819H232.416L242.054 68.7831V69.23H239.031L228.911 59.7219H228.618V69.23H225.976V47.7691H235.804C239.353 47.7691 242.2 49.9311 242.2 53.7755ZM235.424 57.5758C237.862 57.5758 239.6 56.2793 239.6 53.8347C239.6 51.3901 237.862 50.0795 235.424 50.0795H228.618V57.5758H235.424Z" fill="white"/>
<path d="M248.829 47.7691V69.23H246.142V47.7691H248.829Z" fill="white"/>
<path d="M268.923 47.7691V49.7509L256.393 66.9197H269.229V69.23H252.947V67.2482L265.476 50.0795H253.4V47.7691H268.923Z" fill="white"/>
<path d="M281.803 47.3522C288.038 47.3522 292.288 51.3759 292.288 58.4996C292.288 65.6232 288.038 69.6469 281.803 69.6469C275.568 69.6469 271.318 65.6232 271.318 58.4996C271.318 51.3759 275.568 47.3522 281.803 47.3522ZM281.803 67.2924C286.491 67.2924 289.557 64.1032 289.557 58.4996C289.557 52.8959 286.49 49.7068 281.803 49.7068C277.116 49.7068 274.049 52.8959 274.049 58.4996C274.049 64.1032 277.116 67.2924 281.803 67.2924Z" fill="white"/>
<path d="M299.619 47.7691L310.382 65.2505H310.615V47.7691H313.2V69.23H309.973L299.225 51.7486H298.991V69.23H296.406V47.7691H299.619Z" fill="white"/>
<path d="M77.9186 88.72C81.1706 88.72 83.7386 90.64 83.7386 94.06C83.7386 97.468 81.1706 99.436 77.9186 99.436H73.6226V106H69.9626V88.72H77.9186ZM73.6226 96.448H77.3066C78.9986 96.448 80.1266 95.632 80.1266 94.072C80.1266 92.524 78.9986 91.708 77.3066 91.708H73.6226V96.448ZM85.7087 93.436H89.0927V94.84H89.2847C89.7407 93.892 90.6167 93.388 92.1647 93.388H93.9167V96.268H92.1527C90.2087 96.268 89.2487 97.228 89.2487 99.448V106H85.7087V93.436ZM94.7409 99.724C94.7409 95.38 97.5969 93.148 101.557 93.148C105.517 93.148 108.373 95.38 108.373 99.724C108.373 104.056 105.517 106.288 101.557 106.288C97.5969 106.288 94.7409 104.056 94.7409 99.724ZM98.3169 99.724C98.3169 102.232 99.5769 103.588 101.557 103.588C103.537 103.588 104.797 102.232 104.797 99.724C104.797 97.216 103.537 95.848 101.557 95.848C99.5769 95.848 98.3169 97.216 98.3169 99.724ZM123.092 88.72V106H119.66V104.788H119.468C118.556 105.856 117.224 106.252 115.652 106.252C112.52 106.252 109.928 104.176 109.928 99.724C109.928 95.272 112.52 93.184 115.652 93.184C117.176 93.184 118.472 93.568 119.372 94.564H119.552V88.72H123.092ZM113.504 99.724C113.504 102.196 114.728 103.528 116.6 103.528C118.484 103.528 119.708 102.196 119.708 99.724C119.708 97.252 118.484 95.908 116.6 95.908C114.728 95.908 113.504 97.252 113.504 99.724ZM137.94 106H134.52V104.824H134.328C133.5 105.82 132.228 106.252 130.608 106.252C127.608 106.252 125.808 104.68 125.808 101.572V93.436H129.336V101.284C129.336 102.736 130.104 103.48 131.568 103.48C133.164 103.48 134.4 102.628 134.4 100.468V93.436H137.94V106ZM140.116 99.724C140.116 95.344 142.876 93.148 146.776 93.148C150.604 93.148 152.692 95.344 152.824 97.732V98.092H149.572C149.464 97.036 148.768 95.872 146.872 95.872C144.904 95.872 143.656 97.264 143.656 99.724C143.656 102.184 144.904 103.576 146.872 103.576C148.804 103.576 149.5 102.364 149.608 101.236H152.884V101.596C152.704 104.092 150.652 106.288 146.776 106.288C142.876 106.288 140.116 104.092 140.116 99.724ZM153.913 93.436H156.553V90.244H160.093V93.436H163.453V96.1H160.093V102.952L160.285 103.144H163.357V106H160.237C157.957 106 156.553 104.8 156.553 102.568V96.1H153.913V93.436ZM178.558 88.72C184.006 88.72 187.498 92.02 187.498 97.36C187.498 102.7 184.006 106 178.558 106H171.658V88.72H178.558ZM175.33 102.928H178.414C181.582 102.928 183.79 101.068 183.79 97.36C183.79 93.652 181.582 91.792 178.414 91.792H175.33V102.928ZM189.077 99.712C189.077 95.332 191.657 93.148 195.533 93.148C199.361 93.148 201.665 95.392 201.665 99.256V100.684H192.449C192.497 102.388 193.601 103.684 195.509 103.684C197.393 103.684 198.161 102.736 198.353 101.968H201.425V102.328C201.029 104.056 199.469 106.288 195.569 106.288C191.669 106.288 189.077 104.092 189.077 99.712ZM192.485 98.284H198.365C198.341 96.868 197.417 95.716 195.485 95.716C193.613 95.716 192.629 96.904 192.485 98.284ZM203.857 93.436H207.181V94.624H207.373C207.865 93.952 208.873 93.184 210.949 93.184C213.097 93.184 214.021 94.168 214.429 94.936H214.621C215.257 94.036 216.241 93.184 218.677 93.184C221.401 93.184 223.021 94.828 223.021 97.468V106H219.553V97.804C219.553 96.604 218.893 95.944 217.621 95.944C216.253 95.944 215.185 96.628 215.185 98.524V106H211.705V97.804C211.705 96.604 211.057 95.944 209.773 95.944C208.417 95.944 207.337 96.628 207.337 98.524V106H203.857V93.436ZM225.1 99.724C225.1 95.38 227.956 93.148 231.916 93.148C235.876 93.148 238.732 95.38 238.732 99.724C238.732 104.056 235.876 106.288 231.916 106.288C227.956 106.288 225.1 104.056 225.1 99.724ZM228.676 99.724C228.676 102.232 229.936 103.588 231.916 103.588C233.896 103.588 235.156 102.232 235.156 99.724C235.156 97.216 233.896 95.848 231.916 95.848C229.936 95.848 228.676 97.216 228.676 99.724ZM253.98 88.72C259.428 88.72 262.92 92.02 262.92 97.36C262.92 102.7 259.428 106 253.98 106H247.08V88.72H253.98ZM250.752 102.928H253.836C257.004 102.928 259.212 101.068 259.212 97.36C259.212 93.652 257.004 91.792 253.836 91.792H250.752V102.928ZM265.1 97.048C265.352 94.696 267.44 93.148 270.92 93.148C274.388 93.148 276.524 94.696 276.524 98.128V106H273.26V104.704H273.068C272.636 105.424 271.58 106.216 269.216 106.216C266.36 106.216 264.428 104.788 264.428 102.364C264.428 99.832 266.408 98.692 268.892 98.392L273.14 97.864V97.636C273.14 96.268 272.396 95.668 270.872 95.668C269.348 95.668 268.484 96.268 268.376 97.408H265.1V97.048ZM267.944 102.16C267.944 103.06 268.7 103.636 269.996 103.636C271.82 103.636 273.14 102.688 273.14 100.744V100.228L269.696 100.684C268.664 100.828 267.944 101.272 267.944 102.16ZM277.753 93.436H281.425L284.485 102.064H284.677L287.749 93.436H291.337V93.796L284.437 110.8H280.873V110.44L282.721 106.06L277.753 93.796V93.436Z" fill="white"/>
</svg>
