    <svg
  
      viewBox="0 0 367 149"
      fill="none"
      xmlns="http://www.w3.org/2000/svg"
    >
      <rect width="366.667" height="149" rx="8" fill="#9797FF" />
      <path
        d="M343.495 133.8L341.473 133.529L341.202 131.507C341.171 131.275 340.838 131.275 340.807 131.507L340.535 133.529L338.513 133.8C338.282 133.831 338.282 134.164 338.513 134.195L340.535 134.467L340.807 136.489C340.838 136.72 341.171 136.72 341.202 136.489L341.473 134.467L343.495 134.195C343.727 134.164 343.727 133.831 343.495 133.8Z"
        fill="white"
      />
      <path
        d="M298.495 133.8L296.473 133.529L296.202 131.507C296.171 131.275 295.838 131.275 295.807 131.507L295.535 133.529L293.513 133.8C293.282 133.831 293.282 134.164 293.513 134.195L295.535 134.467L295.807 136.489C295.838 136.72 296.171 136.72 296.202 136.489L296.473 134.467L298.495 134.195C298.727 134.164 298.727 133.831 298.495 133.8Z"
        fill="white"
      />
      <path
        d="M253.495 133.8L251.473 133.529L251.202 131.507C251.171 131.275 250.838 131.275 250.807 131.507L250.535 133.529L248.513 133.8C248.282 133.831 248.282 134.164 248.513 134.195L250.535 134.467L250.807 136.489C250.838 136.72 251.171 136.72 251.202 136.489L251.473 134.467L253.495 134.195C253.727 134.164 253.727 133.831 253.495 133.8Z"
        fill="white"
      />
      <path
        d="M208.495 133.8L206.473 133.529L206.202 131.507C206.171 131.275 205.838 131.275 205.807 131.507L205.535 133.529L203.513 133.8C203.282 133.831 203.282 134.164 203.513 134.195L205.535 134.467L205.807 136.489C205.838 136.72 206.171 136.72 206.202 136.489L206.473 134.467L208.495 134.195C208.727 134.164 208.727 133.831 208.495 133.8Z"
        fill="white"
      />
      <path
        d="M163.495 133.8L161.473 133.529L161.202 131.507C161.171 131.275 160.838 131.275 160.807 131.507L160.535 133.529L158.513 133.8C158.282 133.831 158.282 134.164 158.513 134.195L160.535 134.467L160.807 136.489C160.838 136.72 161.171 136.72 161.202 136.489L161.473 134.467L163.495 134.195C163.727 134.164 163.727 133.831 163.495 133.8Z"
        fill="white"
      />
      <path
        d="M118.495 133.8L116.473 133.529L116.202 131.507C116.171 131.275 115.838 131.275 115.807 131.507L115.535 133.529L113.513 133.8C113.282 133.831 113.282 134.164 113.513 134.195L115.535 134.467L115.807 136.489C115.838 136.72 116.171 136.72 116.202 136.489L116.473 134.467L118.495 134.195C118.727 134.164 118.727 133.831 118.495 133.8Z"
        fill="white"
      />
      <path
        d="M73.4954 133.8L71.4732 133.529L71.2021 131.507C71.171 131.275 70.8376 131.275 70.8065 131.507L70.5354 133.529L68.5132 133.8C68.2821 133.831 68.2821 134.164 68.5132 134.195L70.5354 134.467L70.8065 136.489C70.8376 136.72 71.171 136.72 71.2021 136.489L71.4732 134.467L73.4954 134.195C73.7265 134.164 73.7265 133.831 73.4954 133.8Z"
        fill="white"
      />
      <path
        d="M28.4954 133.8L26.4732 133.529L26.2021 131.507C26.171 131.275 25.8376 131.275 25.8065 131.507L25.5354 133.529L23.5132 133.8C23.2821 133.831 23.2821 134.164 23.5132 134.195L25.5354 134.467L25.8065 136.489C25.8376 136.72 26.171 136.72 26.2021 136.489L26.4732 134.467L28.4954 134.195C28.7265 134.164 28.7265 133.831 28.4954 133.8Z"
        fill="white"
      />
      <path
        d="M343.495 15.7999L341.473 15.5288L341.202 13.5066C341.171 13.2755 340.838 13.2755 340.807 13.5066L340.535 15.5288L338.513 15.7999C338.282 15.831 338.282 16.1644 338.513 16.1955L340.535 16.4666L340.807 18.4888C340.838 18.7199 341.171 18.7199 341.202 18.4888L341.473 16.4666L343.495 16.1955C343.727 16.1644 343.727 15.831 343.495 15.7999Z"
        fill="white"
      />
      <path
        d="M298.495 15.7999L296.473 15.5288L296.202 13.5066C296.171 13.2755 295.838 13.2755 295.807 13.5066L295.535 15.5288L293.513 15.7999C293.282 15.831 293.282 16.1644 293.513 16.1955L295.535 16.4666L295.807 18.4888C295.838 18.7199 296.171 18.7199 296.202 18.4888L296.473 16.4666L298.495 16.1955C298.727 16.1644 298.727 15.831 298.495 15.7999Z"
        fill="white"
      />
      <path
        d="M253.495 15.7999L251.473 15.5288L251.202 13.5066C251.171 13.2755 250.838 13.2755 250.807 13.5066L250.535 15.5288L248.513 15.7999C248.282 15.831 248.282 16.1644 248.513 16.1955L250.535 16.4666L250.807 18.4888C250.838 18.7199 251.171 18.7199 251.202 18.4888L251.473 16.4666L253.495 16.1955C253.727 16.1644 253.727 15.831 253.495 15.7999Z"
        fill="white"
      />
      <path
        d="M208.495 15.7999L206.473 15.5288L206.202 13.5066C206.171 13.2755 205.838 13.2755 205.807 13.5066L205.535 15.5288L203.513 15.7999C203.282 15.831 203.282 16.1644 203.513 16.1955L205.535 16.4666L205.807 18.4888C205.838 18.7199 206.171 18.7199 206.202 18.4888L206.473 16.4666L208.495 16.1955C208.727 16.1644 208.727 15.831 208.495 15.7999Z"
        fill="white"
      />
      <path
        d="M163.495 15.7999L161.473 15.5288L161.202 13.5066C161.171 13.2755 160.838 13.2755 160.807 13.5066L160.535 15.5288L158.513 15.7999C158.282 15.831 158.282 16.1644 158.513 16.1955L160.535 16.4666L160.807 18.4888C160.838 18.7199 161.171 18.7199 161.202 18.4888L161.473 16.4666L163.495 16.1955C163.727 16.1644 163.727 15.831 163.495 15.7999Z"
        fill="white"
      />
      <path
        d="M118.495 15.7999L116.473 15.5288L116.202 13.5066C116.171 13.2755 115.838 13.2755 115.807 13.5066L115.535 15.5288L113.513 15.7999C113.282 15.831 113.282 16.1644 113.513 16.1955L115.535 16.4666L115.807 18.4888C115.838 18.7199 116.171 18.7199 116.202 18.4888L116.473 16.4666L118.495 16.1955C118.727 16.1644 118.727 15.831 118.495 15.7999Z"
        fill="white"
      />
      <path
        d="M73.4954 15.7999L71.4732 15.5288L71.2021 13.5066C71.171 13.2755 70.8376 13.2755 70.8065 13.5066L70.5354 15.5288L68.5132 15.7999C68.2821 15.831 68.2821 16.1644 68.5132 16.1955L70.5354 16.4666L70.8065 18.4888C70.8376 18.7199 71.171 18.7199 71.2021 18.4888L71.4732 16.4666L73.4954 16.1955C73.7265 16.1644 73.7265 15.831 73.4954 15.7999Z"
        fill="white"
      />
      <path
        d="M28.4954 15.7999L26.4732 15.5288L26.2021 13.5066C26.171 13.2755 25.8376 13.2755 25.8065 13.5066L25.5354 15.5288L23.5132 15.7999C23.2821 15.831 23.2821 16.1644 23.5132 16.1955L25.5354 16.4666L25.8065 18.4888C25.8376 18.7199 26.171 18.7199 26.2021 18.4888L26.4732 16.4666L28.4954 16.1955C28.7265 16.1644 28.7265 15.831 28.4954 15.7999Z"
        fill="white"
      />
      <path
        d="M99.4808 47.3911C97.1354 47.3911 95.4299 47.9466 93.9808 49.2281L91.4221 51.4492C91.2088 51.6206 90.7822 51.7486 90.4843 51.4916C90.1855 51.2355 90.1432 50.8937 90.3988 50.552L91.7632 48.5012C91.9765 48.2018 91.8064 47.8177 91.4221 47.8177H88.1389C87.7554 47.8177 87.4567 48.1171 87.4567 48.5012V68.4961C87.4567 68.8803 87.7554 69.1797 88.1389 69.1797H91.5499C91.9333 69.1797 92.2321 68.8803 92.2321 68.4961V57.2172C92.2321 52.048 96.5387 51.2364 98.1587 51.2364C101.612 51.2364 102.849 53.7146 102.849 55.5939V68.4961C102.849 68.8803 103.147 69.1797 103.531 69.1797H106.942C107.325 69.1797 107.624 68.8803 107.624 68.4961V55.1665C107.624 50.3815 104.512 47.3911 99.4808 47.3911Z"
        fill="white"
      />
      <path
        d="M121.523 47.3054C114.914 47.3054 110.693 51.3645 110.693 56.8754V59.9091C110.693 65.7194 114.914 69.6928 121.523 69.6928C127.364 69.6928 131.457 66.6591 131.884 62.5577C131.927 62.1302 131.628 61.8317 131.202 61.8317H127.876C127.577 61.8317 127.322 62.0031 127.236 62.3016C126.81 63.6687 124.806 65.7194 121.523 65.7194C118.24 65.7194 115.17 63.3269 115.212 59.9091L115.255 56.1071C115.298 53.2447 118.283 51.2797 121.523 51.2797C124.465 51.2797 127.322 52.9462 127.62 55.6805C127.644 55.9967 127.428 56.2819 127.117 56.342L117.557 58.201C117.173 58.2867 116.875 58.6285 116.875 59.0551V59.0975C116.875 59.4816 117.258 59.8234 117.812 59.8234H131.542C131.919 59.8234 132.224 59.517 132.224 59.1399V56.4488C132.224 51.3653 127.832 47.3063 121.522 47.3063L121.523 47.3054Z"
        fill="white"
      />
      <path
        d="M145.314 47.3054C139.984 47.3054 135.38 50.4239 135.38 54.5253C135.38 54.8671 135.679 55.1232 136.062 55.1232H139.515C139.856 55.1232 140.112 54.8671 140.155 54.5253C140.496 52.6459 142.756 51.2788 145.186 51.2788C148.085 51.2788 150.047 53.0734 150.047 56.1495V59.8667C150.047 63.6687 147.233 65.5914 143.736 65.5914C141.008 65.5914 139.43 64.566 139.43 62.8995C139.43 61.4467 140.198 60.2076 143.352 59.4816L147.914 58.2426C148.383 58.1145 148.554 57.7294 148.469 57.3029C148.426 56.9611 148.043 56.7897 147.701 56.7897H142.969C138.961 56.7897 134.91 59.3527 134.91 63.1123V63.7102C134.91 67.5555 138.534 69.563 142.67 69.563C145.313 69.563 147.573 68.5376 148.98 67.3418L151.07 65.5472C151.411 65.2478 151.752 65.2478 152.05 65.5472C152.305 65.8033 152.22 66.1884 152.007 66.4869L150.728 68.4952C150.514 68.7946 150.685 69.1788 151.069 69.1788H154.139C154.522 69.1788 154.821 68.8794 154.821 68.4952V55.5498C154.821 50.5943 151.282 47.3045 145.312 47.3045L145.314 47.3054Z"
        fill="white"
      />
      <path
        d="M173.241 47.8186H168.465C166.803 47.8186 165.182 48.8439 164.031 49.8269L162.155 51.4501C161.942 51.6215 161.558 51.7495 161.302 51.5358C161.003 51.3221 160.875 50.8946 161.132 50.5528L162.496 48.5021C162.71 48.2027 162.539 47.8186 162.155 47.8186H158.957C158.574 47.8186 158.275 48.1179 158.275 48.5021V68.497C158.275 68.8812 158.574 69.1806 158.957 69.1806H162.454C162.837 69.1806 163.136 68.8812 163.136 68.497V58.2434C163.136 53.8426 164.927 51.8776 168.807 51.8776H173.242C173.625 51.8776 173.924 51.5782 173.924 51.194V48.5021C173.924 48.1179 173.624 47.8186 173.241 47.8186Z"
        fill="white"
      />
      <path
        d="M74.6419 43C73.496 43 72.4322 43.5953 71.8319 44.5738L65.365 54.1941C65.1544 54.5112 65.2399 54.9386 65.5563 55.1497C65.8128 55.321 66.1521 55.2998 66.3857 55.0985L72.7512 49.5663C72.857 49.471 73.0201 49.4807 73.1153 49.5867C73.1584 49.6352 73.1814 49.6979 73.1814 49.7624V67.083C73.1814 67.2261 73.0659 67.3409 72.9231 67.3409C72.8464 67.3409 72.7741 67.3074 72.7257 67.2482L53.4836 44.1693C52.8578 43.4275 51.9377 43 50.9681 43H50.2956C48.4755 43 47 44.4784 47 46.3022V70.697C47 72.5207 48.4755 73.9991 50.2956 73.9991C51.4414 73.9991 52.5053 73.4039 53.1055 72.4253L59.5724 62.805C59.7831 62.4879 59.6976 62.0605 59.3811 61.8494C59.1247 61.6781 58.7853 61.6993 58.5517 61.9006L52.1862 67.4328C52.0804 67.5282 51.9174 67.5184 51.8222 67.4125C51.779 67.3639 51.7561 67.3012 51.757 67.2367V49.9125C51.757 49.7695 51.8724 49.6547 52.0152 49.6547C52.091 49.6547 52.1642 49.6882 52.2126 49.7474L71.452 72.8307C72.0787 73.5717 72.9989 73.9991 73.9676 74H74.6401C76.4602 74.0009 77.9366 72.5233 77.9383 70.6996V46.3022C77.9374 44.4784 76.462 43 74.6419 43Z"
        fill="white"
      />
      <path
        d="M186.209 47.7691V57.2472H197.691V47.7691H200.428V69.23H197.691V59.6618H186.209V69.23H183.487V47.7691H186.209Z"
        fill="white"
      />
      <path
        d="M215.286 47.3522C221.637 47.3522 225.966 51.3759 225.966 58.4996C225.966 65.6232 221.637 69.6469 215.286 69.6469C208.936 69.6469 204.607 65.6232 204.607 58.4996C204.607 51.3759 208.936 47.3522 215.286 47.3522ZM215.286 67.2924C220.061 67.2924 223.184 64.1032 223.184 58.4996C223.184 52.8959 220.06 49.7068 215.286 49.7068C210.513 49.7068 207.389 52.8959 207.389 58.4996C207.389 64.1032 210.513 67.2924 215.286 67.2924Z"
        fill="white"
      />
      <path
        d="M246.685 53.7755C246.685 57.6208 243.874 59.7819 240.408 59.7819H236.72L246.536 68.7831V69.23H243.457L233.15 59.7219H232.852V69.23H230.16V47.7691H240.17C243.785 47.7691 246.685 49.9311 246.685 53.7755ZM239.783 57.5758C242.267 57.5758 244.037 56.2793 244.037 53.8347C244.037 51.3901 242.267 50.0795 239.783 50.0795H232.852V57.5758H239.783Z"
        fill="white"
      />
      <path d="M253.437 47.7691V69.23H250.701V47.7691H253.437Z" fill="white" />
      <path
        d="M273.903 47.7691V49.7509L261.141 66.9197H274.215V69.23H257.631V67.2482L270.392 50.0795H258.092V47.7691H273.903Z"
        fill="white"
      />
      <path
        d="M287.022 47.3522C293.372 47.3522 297.701 51.3759 297.701 58.4996C297.701 65.6232 293.372 69.6469 287.022 69.6469C280.671 69.6469 276.342 65.6232 276.342 58.4996C276.342 51.3759 280.671 47.3522 287.022 47.3522ZM287.022 67.2924C291.796 67.2924 294.919 64.1032 294.919 58.4996C294.919 52.8959 291.795 49.7068 287.022 49.7068C282.248 49.7068 279.124 52.8959 279.124 58.4996C279.124 64.1032 282.248 67.2924 287.022 67.2924Z"
        fill="white"
      />
      <path
        d="M305.167 47.7691L316.129 65.2505H316.367V47.7691H319V69.23H315.713L304.766 51.7486H304.528V69.23H301.895V47.7691H305.167Z"
        fill="white"
      />
      <path
        d="M106.862 97.36C106.862 91.732 110.258 88.384 115.862 88.384C121.466 88.384 124.862 91.732 124.862 97.36C124.862 102.988 121.466 106.336 115.862 106.336C110.258 106.336 106.862 102.988 106.862 97.36ZM110.618 97.36C110.618 101.092 112.55 103.264 115.862 103.264C119.174 103.264 121.118 101.092 121.118 97.36C121.118 93.628 119.174 91.456 115.862 91.456C112.55 91.456 110.618 93.628 110.618 97.36Z"
        fill="white"
      />
      <path
        d="M126.119 96.1V93.436H128.831V92.152C128.831 89.92 130.235 88.72 132.503 88.72H135.683V91.3H132.551L132.359 91.492V93.436H135.599V96.1H132.359V106H128.831V96.1H126.119Z"
        fill="white"
      />
      <path
        d="M137.439 96.1V93.436H140.151V92.152C140.151 89.92 141.555 88.72 143.823 88.72H147.003V91.3H143.871L143.679 91.492V93.436H146.919V96.1H143.679V106H140.151V96.1H137.439Z"
        fill="white"
      />
      <path
        d="M149.478 93.436H153.018V106H149.478V93.436ZM149.43 91.816V88.936H153.066V91.816H149.43Z"
        fill="white"
      />
      <path
        d="M155.206 99.724C155.206 95.344 157.966 93.148 161.866 93.148C165.694 93.148 167.782 95.344 167.914 97.732V98.092H164.662C164.554 97.036 163.858 95.872 161.962 95.872C159.994 95.872 158.746 97.264 158.746 99.724C158.746 102.184 159.994 103.576 161.962 103.576C163.894 103.576 164.59 102.364 164.698 101.236H167.974V101.596C167.794 104.092 165.742 106.288 161.866 106.288C157.966 106.288 155.206 104.092 155.206 99.724Z"
        fill="white"
      />
      <path
        d="M169.432 99.712C169.432 95.332 172.012 93.148 175.888 93.148C179.716 93.148 182.02 95.392 182.02 99.256V100.684H172.804C172.852 102.388 173.956 103.684 175.864 103.684C177.748 103.684 178.516 102.736 178.708 101.968H181.78V102.328C181.384 104.056 179.824 106.288 175.924 106.288C172.024 106.288 169.432 104.092 169.432 99.712ZM172.84 98.284H178.72C178.696 96.868 177.772 95.716 175.84 95.716C173.968 95.716 172.984 96.904 172.84 98.284Z"
        fill="white"
      />
      <path
        d="M190.381 88.72H194.053V95.74H201.601V88.72H205.273V106H201.601V98.896H194.053V106H190.381V88.72Z"
        fill="white"
      />
      <path
        d="M207.635 99.724C207.635 95.38 210.491 93.148 214.451 93.148C218.411 93.148 221.267 95.38 221.267 99.724C221.267 104.056 218.411 106.288 214.451 106.288C210.491 106.288 207.635 104.056 207.635 99.724ZM211.211 99.724C211.211 102.232 212.471 103.588 214.451 103.588C216.431 103.588 217.691 102.232 217.691 99.724C217.691 97.216 216.431 95.848 214.451 95.848C212.471 95.848 211.211 97.216 211.211 99.724Z"
        fill="white"
      />
      <path
        d="M235.483 106H232.063V104.824H231.871C231.043 105.82 229.771 106.252 228.151 106.252C225.151 106.252 223.351 104.68 223.351 101.572V93.436H226.879V101.284C226.879 102.736 227.647 103.48 229.111 103.48C230.707 103.48 231.943 102.628 231.943 100.468V93.436H235.483V106Z"
        fill="white"
      />
      <path
        d="M238.283 93.436H241.667V94.84H241.859C242.315 93.892 243.191 93.388 244.739 93.388H246.491V96.268H244.727C242.783 96.268 241.823 97.228 241.823 99.448V106H238.283V93.436Z"
        fill="white"
      />
      <path
        d="M247.751 96.94C247.751 94.648 249.671 93.172 253.283 93.172C256.907 93.172 258.923 94.648 259.115 96.976V97.336H255.923C255.827 96.064 254.783 95.668 253.307 95.668C251.831 95.668 251.075 96.088 251.075 96.844C251.075 97.6 251.675 97.888 252.551 98.02L255.047 98.38C257.591 98.74 259.295 99.844 259.295 102.184C259.295 104.536 257.507 106.264 253.631 106.264C249.743 106.264 247.643 104.536 247.535 102.352V101.992H250.799C250.883 103.24 252.107 103.756 253.631 103.756C255.167 103.756 255.947 103.228 255.947 102.388C255.947 101.584 255.335 101.224 254.255 101.068L251.759 100.708C249.347 100.36 247.751 99.22 247.751 96.94Z"
        fill="white"
      />
    </svg>