<svg width="83" height="21" viewBox="0 0 83 21" fill="none" xmlns="http://www.w3.org/2000/svg">
  <path d="M34.3187 3.48713C32.7849 3.48713 31.6696 3.84553 30.722 4.67231L29.0487 6.10536C28.9092 6.21591 28.6303 6.29852 28.4355 6.13271C28.24 5.96747 28.2124 5.74696 28.3796 5.52645L29.2718 4.20337C29.4113 4.01021 29.3001 3.76234 29.0487 3.76234H26.9017C26.651 3.76234 26.4556 3.9555 26.4556 4.20337V17.1037C26.4556 17.3515 26.651 17.5447 26.9017 17.5447H29.1323C29.3831 17.5447 29.5784 17.3515 29.5784 17.1037V9.8267C29.5784 6.49169 32.3947 5.96804 33.4541 5.96804C35.7124 5.96804 36.521 7.5669 36.521 8.7794V17.1037C36.521 17.3515 36.7164 17.5447 36.9672 17.5447H39.1977C39.4485 17.5447 39.6439 17.3515 39.6439 17.1037V8.50366C39.6439 5.41647 37.6087 3.48713 34.3187 3.48713Z" fill="#3A3F42"/>
  <path d="M48.7329 3.43182C44.4112 3.43182 41.6509 6.05063 41.6509 9.60615V11.5635C41.6509 15.3121 44.4112 17.8757 48.7329 17.8757C52.5527 17.8757 55.2293 15.9185 55.5083 13.2723C55.5366 12.9965 55.3412 12.8039 55.0622 12.8039H52.8875C52.6921 12.8039 52.5249 12.9145 52.469 13.107C52.1901 13.9891 50.8799 15.3121 48.7329 15.3121C46.5858 15.3121 44.5783 13.7686 44.606 11.5635L44.6342 9.11049C44.6619 7.26374 46.6141 5.99593 48.7329 5.99593C50.6569 5.99593 52.5249 7.07115 52.7198 8.83528C52.7359 9.03927 52.5941 9.22327 52.3907 9.26204L46.1392 10.4615C45.8885 10.5167 45.6931 10.7372 45.6931 11.0124V11.0398C45.6931 11.2877 45.9438 11.5082 46.3063 11.5082H55.2847C55.5314 11.5082 55.7308 11.3105 55.7308 11.0671V9.33101C55.7308 6.0512 52.8587 3.4324 48.7323 3.4324L48.7329 3.43182Z" fill="#3A3F42"/>
  <path d="M64.2909 3.43185C60.8054 3.43185 57.7944 5.44381 57.7944 8.08997C57.7944 8.31048 57.9898 8.4757 58.2405 8.4757H60.4988C60.7219 8.4757 60.889 8.31048 60.9172 8.08997C61.1403 6.87743 62.6181 5.99538 64.2073 5.99538C66.103 5.99538 67.3861 7.15321 67.3861 9.13786V11.5361C67.3861 13.9891 65.5456 15.2296 63.2591 15.2296C61.4746 15.2296 60.4429 14.568 60.4429 13.4928C60.4429 12.5555 60.9449 11.7561 63.0078 11.2877L65.9912 10.4882C66.2978 10.4056 66.4096 10.1572 66.3537 9.88199C66.326 9.66147 66.0753 9.55095 65.8517 9.55095H62.7571C60.1362 9.55095 57.4872 11.2045 57.4872 13.6301V14.0159C57.4872 16.4968 59.8573 17.792 62.5617 17.792C64.2902 17.792 65.7681 17.1304 66.688 16.3589L68.0547 15.2011C68.2777 15.008 68.5008 15.008 68.6955 15.2011C68.8627 15.3663 68.8068 15.6147 68.6674 15.8074L67.831 17.1031C67.6915 17.2962 67.8028 17.5441 68.0541 17.5441H70.0616C70.3124 17.5441 70.5077 17.3509 70.5077 17.1031V8.75092C70.5077 5.55379 68.1935 3.43127 64.2897 3.43127L64.2909 3.43185Z" fill="#3A3F42"/>
  <path d="M82.5533 3.76288H79.43C78.3429 3.76288 77.2831 4.42441 76.5302 5.0586L75.3039 6.10589C75.1644 6.21644 74.9131 6.29905 74.7459 6.16117C74.5506 6.02327 74.467 5.74749 74.6347 5.52697L75.527 4.2039C75.6666 4.01074 75.5552 3.76288 75.3039 3.76288H73.2128C72.962 3.76288 72.7666 3.95604 72.7666 4.2039V17.1042C72.7666 17.352 72.962 17.5452 73.2128 17.5452H75.4993C75.7499 17.5452 75.9453 17.352 75.9453 17.1042V10.4888C75.9453 7.6495 77.1165 6.38168 79.6542 6.38168H82.5533C82.8041 6.38168 82.9995 6.18852 82.9995 5.94065V4.2039C82.9995 3.95604 82.8041 3.76288 82.5533 3.76288Z" fill="#3A3F42"/>
  <path d="M18.0755 0.654053C17.3263 0.654053 16.6305 1.0381 16.2381 1.66944L12.0091 7.87628C11.8713 8.08087 11.9272 8.35661 12.1342 8.49283C12.3019 8.60335 12.5238 8.58967 12.6766 8.45977L16.8392 4.89052C16.9084 4.82899 17.015 4.83525 17.0773 4.90363C17.1055 4.93496 17.1205 4.97542 17.1205 5.01702V16.192C17.1205 16.2842 17.045 16.3583 16.9516 16.3583C16.9014 16.3583 16.8542 16.3367 16.8225 16.2985L4.23941 1.40847C3.8296 0.930408 3.22785 0.654623 2.5944 0.654053H2.15462C0.96438 0.654053 -0.000488281 1.6079 -0.000488281 2.78454V18.5235C-0.000488281 19.7002 0.96438 20.6541 2.15462 20.6541C2.90392 20.6541 3.59962 20.27 3.99214 19.6387L8.22112 13.4319C8.35884 13.2273 8.30294 12.9515 8.09598 12.8153C7.92826 12.7048 7.70638 12.7185 7.55366 12.8484L3.39097 16.4176C3.3218 16.4791 3.21517 16.4728 3.15293 16.4045C3.12468 16.3731 3.10969 16.3327 3.11027 16.2911V5.11332C3.11027 5.02101 3.18577 4.94693 3.27915 4.94693C3.32872 4.94693 3.37656 4.96859 3.40826 5.00676L15.9897 19.8996C16.3994 20.3777 17.0012 20.6535 17.6346 20.6541H18.0744C19.2646 20.6547 20.2301 19.7014 20.2313 18.5247V2.78454C20.2313 1.6079 19.2658 0.654053 18.0755 0.654053Z" fill="#3A3F42"/>
</svg>
