<?xml version="1.0" standalone="no"?>
<!DOCTYPE svg PUBLIC "-//W3C//DTD SVG 20010904//EN"
 "http://www.w3.org/TR/2001/REC-SVG-20010904/DTD/svg10.dtd">
<svg version="1.0" xmlns="http://www.w3.org/2000/svg"
 width="700.000000pt" height="700.000000pt" viewBox="0 0 700.000000 700.000000"
 preserveAspectRatio="xMidYMid meet">
<metadata>
Created by potrace 1.14, written by Peter Selinger 2001-2017
</metadata>
<g transform="translate(0.000000,700.000000) scale(0.100000,-0.100000)"
fill="#000000" stroke="none">
<path d="M1678 5651 c-113 -29 -205 -96 -270 -195 -77 -120 -71 45 -73 -1926
-2 -1086 1 -1786 7 -1820 5 -30 16 -65 24 -77 32 -50 101 -72 153 -49 13 6
102 109 199 231 97 121 182 227 189 235 7 8 144 179 304 380 160 201 304 381
320 400 15 19 87 109 160 200 72 91 144 181 160 200 15 19 159 199 320 400
160 201 300 375 311 387 l21 22 979 -1224 c645 -807 987 -1227 1002 -1231 95
-24 151 13 171 113 15 73 17 3530 2 3602 -16 80 -67 172 -127 232 -58 58 -98
83 -185 115 -48 17 -138 18 -1827 19 -1592 1 -1784 0 -1840 -14z"/>
<path d="M3479 3993 c-19 -52 -140 -358 -154 -388 -7 -16 -65 -163 -129 -325
-65 -162 -123 -308 -131 -325 -7 -16 -43 -106 -80 -200 -36 -93 -75 -188 -85
-210 -9 -22 -21 -51 -25 -65 -4 -14 -15 -43 -25 -65 -10 -22 -70 -173 -135
-335 -64 -162 -122 -308 -130 -325 -39 -90 -104 -264 -109 -290 -7 -41 21 -94
61 -115 29 -15 63 -17 267 -16 221 1 236 2 263 22 34 25 51 57 58 110 7 52 17
115 20 134 3 19 14 95 20 140 3 19 7 44 9 56 2 12 7 45 11 75 3 30 8 65 10 79
6 35 15 96 40 270 2 14 6 44 10 68 4 23 8 52 10 65 1 12 7 56 14 97 11 71 13
89 26 185 3 22 17 114 30 205 13 91 27 183 30 205 11 81 17 120 20 136 2 9 6
40 10 70 8 69 14 106 22 144 3 17 7 41 8 55 1 14 5 43 8 65 4 22 9 60 12 85 3
25 12 83 20 130 7 47 17 112 21 145 4 33 9 63 10 68 1 4 2 21 3 37 0 17 5 30
9 30 6 0 17 -59 37 -215 3 -16 7 -46 10 -65 3 -19 8 -51 10 -70 4 -35 14 -98
21 -135 2 -11 6 -45 9 -75 4 -30 8 -62 10 -70 2 -8 7 -37 10 -65 4 -27 8 -57
10 -65 2 -8 7 -35 10 -60 3 -25 14 -103 25 -175 23 -160 29 -202 35 -250 6
-44 10 -72 21 -135 4 -25 7 -48 6 -52 -1 -4 2 -29 8 -55 5 -27 11 -66 14 -88
3 -22 9 -69 15 -105 5 -36 13 -85 16 -110 3 -25 10 -70 15 -100 5 -30 12 -77
15 -105 3 -27 8 -59 10 -70 2 -11 7 -40 10 -65 3 -25 7 -54 9 -66 2 -12 7 -45
11 -74 4 -29 9 -62 11 -74 2 -12 6 -41 9 -66 3 -25 7 -56 10 -70 2 -14 7 -42
10 -64 8 -59 32 -101 68 -118 44 -20 491 -20 522 1 67 44 75 102 30 206 -7 17
-115 286 -240 600 -125 314 -233 584 -240 600 -7 17 -30 73 -50 125 -21 52
-43 109 -50 125 -7 17 -43 107 -80 200 -37 94 -73 184 -80 200 -8 17 -65 160
-129 320 -63 159 -120 291 -126 293 -5 2 -15 -9 -21 -25z"/>
</g>
</svg>
