<svg width="367" height="150" viewBox="0 0 367 150" fill="none" xmlns="http://www.w3.org/2000/svg">
<rect x="0.333984" y="0.5" width="366.667" height="149" rx="8" fill="#3A3F42"/>
<path d="M343.829 134.3L341.807 134.029L341.536 132.006C341.505 131.775 341.172 131.775 341.14 132.006L340.869 134.029L338.847 134.3C338.616 134.331 338.616 134.664 338.847 134.695L340.869 134.966L341.14 136.989C341.172 137.22 341.505 137.22 341.536 136.989L341.807 134.966L343.829 134.695C344.06 134.664 344.06 134.331 343.829 134.3Z" fill="white"/>
<path d="M298.829 134.3L296.807 134.029L296.536 132.006C296.505 131.775 296.172 131.775 296.14 132.006L295.869 134.029L293.847 134.3C293.616 134.331 293.616 134.664 293.847 134.695L295.869 134.966L296.14 136.989C296.172 137.22 296.505 137.22 296.536 136.989L296.807 134.966L298.829 134.695C299.06 134.664 299.06 134.331 298.829 134.3Z" fill="white"/>
<path d="M253.829 134.3L251.807 134.029L251.536 132.006C251.505 131.775 251.172 131.775 251.14 132.006L250.869 134.029L248.847 134.3C248.616 134.331 248.616 134.664 248.847 134.695L250.869 134.966L251.14 136.989C251.172 137.22 251.505 137.22 251.536 136.989L251.807 134.966L253.829 134.695C254.06 134.664 254.06 134.331 253.829 134.3Z" fill="white"/>
<path d="M208.829 134.3L206.807 134.029L206.536 132.006C206.505 131.775 206.172 131.775 206.14 132.006L205.869 134.029L203.847 134.3C203.616 134.331 203.616 134.664 203.847 134.695L205.869 134.966L206.14 136.989C206.172 137.22 206.505 137.22 206.536 136.989L206.807 134.966L208.829 134.695C209.06 134.664 209.06 134.331 208.829 134.3Z" fill="white"/>
<path d="M163.829 134.3L161.807 134.029L161.536 132.006C161.505 131.775 161.172 131.775 161.14 132.006L160.869 134.029L158.847 134.3C158.616 134.331 158.616 134.664 158.847 134.695L160.869 134.966L161.14 136.989C161.172 137.22 161.505 137.22 161.536 136.989L161.807 134.966L163.829 134.695C164.06 134.664 164.06 134.331 163.829 134.3Z" fill="white"/>
<path d="M118.829 134.3L116.807 134.029L116.536 132.006C116.505 131.775 116.172 131.775 116.14 132.006L115.869 134.029L113.847 134.3C113.616 134.331 113.616 134.664 113.847 134.695L115.869 134.966L116.14 136.989C116.172 137.22 116.505 137.22 116.536 136.989L116.807 134.966L118.829 134.695C119.06 134.664 119.06 134.331 118.829 134.3Z" fill="white"/>
<path d="M73.8294 134.3L71.8072 134.029L71.5361 132.006C71.5049 131.775 71.1716 131.775 71.1405 132.006L70.8694 134.029L68.8472 134.3C68.6161 134.331 68.6161 134.664 68.8472 134.695L70.8694 134.966L71.1405 136.989C71.1716 137.22 71.5049 137.22 71.5361 136.989L71.8072 134.966L73.8294 134.695C74.0605 134.664 74.0605 134.331 73.8294 134.3Z" fill="white"/>
<path d="M28.8294 134.3L26.8072 134.029L26.5361 132.006C26.5049 131.775 26.1716 131.775 26.1405 132.006L25.8694 134.029L23.8472 134.3C23.6161 134.331 23.6161 134.664 23.8472 134.695L25.8694 134.966L26.1405 136.989C26.1716 137.22 26.5049 137.22 26.5361 136.989L26.8072 134.966L28.8294 134.695C29.0605 134.664 29.0605 134.331 28.8294 134.3Z" fill="white"/>
<path d="M343.829 16.2997L341.807 16.0286L341.536 14.0063C341.505 13.7752 341.172 13.7752 341.14 14.0063L340.869 16.0286L338.847 16.2997C338.616 16.3308 338.616 16.6641 338.847 16.6952L340.869 16.9663L341.14 18.9886C341.172 19.2197 341.505 19.2197 341.536 18.9886L341.807 16.9663L343.829 16.6952C344.06 16.6641 344.06 16.3308 343.829 16.2997Z" fill="white"/>
<path d="M298.829 16.2997L296.807 16.0286L296.536 14.0063C296.505 13.7752 296.172 13.7752 296.14 14.0063L295.869 16.0286L293.847 16.2997C293.616 16.3308 293.616 16.6641 293.847 16.6952L295.869 16.9663L296.14 18.9886C296.172 19.2197 296.505 19.2197 296.536 18.9886L296.807 16.9663L298.829 16.6952C299.06 16.6641 299.06 16.3308 298.829 16.2997Z" fill="white"/>
<path d="M253.829 16.2997L251.807 16.0286L251.536 14.0063C251.505 13.7752 251.172 13.7752 251.14 14.0063L250.869 16.0286L248.847 16.2997C248.616 16.3308 248.616 16.6641 248.847 16.6952L250.869 16.9663L251.14 18.9886C251.172 19.2197 251.505 19.2197 251.536 18.9886L251.807 16.9663L253.829 16.6952C254.06 16.6641 254.06 16.3308 253.829 16.2997Z" fill="white"/>
<path d="M208.829 16.2997L206.807 16.0286L206.536 14.0063C206.505 13.7752 206.172 13.7752 206.14 14.0063L205.869 16.0286L203.847 16.2997C203.616 16.3308 203.616 16.6641 203.847 16.6952L205.869 16.9663L206.14 18.9886C206.172 19.2197 206.505 19.2197 206.536 18.9886L206.807 16.9663L208.829 16.6952C209.06 16.6641 209.06 16.3308 208.829 16.2997Z" fill="white"/>
<path d="M163.829 16.2997L161.807 16.0286L161.536 14.0063C161.505 13.7752 161.172 13.7752 161.14 14.0063L160.869 16.0286L158.847 16.2997C158.616 16.3308 158.616 16.6641 158.847 16.6952L160.869 16.9663L161.14 18.9886C161.172 19.2197 161.505 19.2197 161.536 18.9886L161.807 16.9663L163.829 16.6952C164.06 16.6641 164.06 16.3308 163.829 16.2997Z" fill="white"/>
<path d="M118.829 16.2997L116.807 16.0286L116.536 14.0063C116.505 13.7752 116.172 13.7752 116.14 14.0063L115.869 16.0286L113.847 16.2997C113.616 16.3308 113.616 16.6641 113.847 16.6952L115.869 16.9663L116.14 18.9886C116.172 19.2197 116.505 19.2197 116.536 18.9886L116.807 16.9663L118.829 16.6952C119.06 16.6641 119.06 16.3308 118.829 16.2997Z" fill="white"/>
<path d="M73.8294 16.2997L71.8072 16.0286L71.5361 14.0063C71.5049 13.7752 71.1716 13.7752 71.1405 14.0063L70.8694 16.0286L68.8472 16.2997C68.6161 16.3308 68.6161 16.6641 68.8472 16.6952L70.8694 16.9663L71.1405 18.9886C71.1716 19.2197 71.5049 19.2197 71.5361 18.9886L71.8072 16.9663L73.8294 16.6952C74.0605 16.6641 74.0605 16.3308 73.8294 16.2997Z" fill="white"/>
<path d="M28.8294 16.2997L26.8072 16.0286L26.5361 14.0063C26.5049 13.7752 26.1716 13.7752 26.1405 14.0063L25.8694 16.0286L23.8472 16.2997C23.6161 16.3308 23.6161 16.6641 23.8472 16.6952L25.8694 16.9663L26.1405 18.9886C26.1716 19.2197 26.5049 19.2197 26.5361 18.9886L26.8072 16.9663L28.8294 16.6952C29.0605 16.6641 29.0605 16.3308 28.8294 16.2997Z" fill="white"/>
<path d="M99.8148 47.8911C97.4694 47.8911 95.7639 48.4466 94.3148 49.7281L91.7561 51.9492C91.5428 52.1206 91.1162 52.2486 90.8183 51.9916C90.5195 51.7355 90.4772 51.3937 90.7328 51.052L92.0972 49.0012C92.3105 48.7018 92.1404 48.3177 91.7561 48.3177H88.4728C88.0894 48.3177 87.7906 48.6171 87.7906 49.0012V68.9961C87.7906 69.3803 88.0894 69.6797 88.4728 69.6797H91.8839C92.2673 69.6797 92.5661 69.3803 92.5661 68.9961V57.7172C92.5661 52.548 96.8727 51.7364 98.4927 51.7364C101.946 51.7364 103.183 54.2146 103.183 56.0939V68.9961C103.183 69.3803 103.481 69.6797 103.865 69.6797H107.276C107.659 69.6797 107.958 69.3803 107.958 68.9961V55.6665C107.958 50.8815 104.846 47.8911 99.8148 47.8911Z" fill="white"/>
<path d="M121.857 47.8054C115.248 47.8054 111.027 51.8645 111.027 57.3754V60.4091C111.027 66.2194 115.248 70.1928 121.857 70.1928C127.698 70.1928 131.791 67.1591 132.218 63.0577C132.261 62.6302 131.962 62.3317 131.536 62.3317H128.21C127.911 62.3317 127.656 62.5031 127.57 62.8016C127.144 64.1687 125.14 66.2194 121.857 66.2194C118.574 66.2194 115.504 63.8269 115.546 60.4091L115.589 56.6071C115.632 53.7447 118.617 51.7797 121.857 51.7797C124.799 51.7797 127.656 53.4462 127.954 56.1805C127.978 56.4967 127.762 56.7819 127.451 56.842L117.891 58.701C117.507 58.7867 117.209 59.1285 117.209 59.5551V59.5975C117.209 59.9816 117.592 60.3234 118.146 60.3234H131.876C132.253 60.3234 132.558 60.017 132.558 59.6399V56.9488C132.558 51.8653 128.166 47.8063 121.856 47.8063L121.857 47.8054Z" fill="white"/>
<path d="M145.648 47.8054C140.318 47.8054 135.714 50.9239 135.714 55.0253C135.714 55.3671 136.013 55.6232 136.396 55.6232H139.849C140.19 55.6232 140.446 55.3671 140.489 55.0253C140.83 53.1459 143.09 51.7788 145.52 51.7788C148.419 51.7788 150.381 53.5734 150.381 56.6495V60.3667C150.381 64.1687 147.567 66.0914 144.07 66.0914C141.341 66.0914 139.764 65.066 139.764 63.3995C139.764 61.9467 140.531 60.7076 143.686 59.9816L148.248 58.7426C148.717 58.6145 148.888 58.2294 148.803 57.8029C148.76 57.4611 148.377 57.2897 148.035 57.2897H143.303C139.295 57.2897 135.244 59.8527 135.244 63.6123V64.2102C135.244 68.0555 138.868 70.063 143.004 70.063C145.647 70.063 147.907 69.0376 149.314 67.8418L151.404 66.0472C151.745 65.7478 152.086 65.7478 152.384 66.0472C152.639 66.3033 152.554 66.6884 152.341 66.9869L151.062 68.9952C150.848 69.2946 151.018 69.6788 151.403 69.6788H154.473C154.856 69.6788 155.155 69.3794 155.155 68.9952V56.0498C155.155 51.0943 151.616 47.8045 145.646 47.8045L145.648 47.8054Z" fill="white"/>
<path d="M173.575 48.3186H168.799C167.137 48.3186 165.516 49.3439 164.365 50.3269L162.489 51.9501C162.276 52.1215 161.892 52.2495 161.636 52.0358C161.337 51.8221 161.209 51.3946 161.466 51.0528L162.83 49.0021C163.044 48.7027 162.873 48.3186 162.489 48.3186H159.291C158.908 48.3186 158.609 48.6179 158.609 49.0021V68.997C158.609 69.3812 158.908 69.6806 159.291 69.6806H162.788C163.171 69.6806 163.47 69.3812 163.47 68.997V58.7434C163.47 54.3426 165.261 52.3776 169.141 52.3776H173.576C173.959 52.3776 174.258 52.0782 174.258 51.694V49.0021C174.258 48.6179 173.958 48.3186 173.575 48.3186Z" fill="white"/>
<path d="M74.9758 43.5C73.83 43.5 72.7661 44.0953 72.1659 45.0738L65.699 54.6941C65.4884 55.0112 65.5739 55.4386 65.8903 55.6497C66.1468 55.821 66.4861 55.7998 66.7197 55.5985L73.0852 50.0663C73.191 49.971 73.354 49.9807 73.4492 50.0867C73.4924 50.1352 73.5153 50.1979 73.5153 50.2624V67.583C73.5153 67.7261 73.3999 67.8409 73.2571 67.8409C73.1804 67.8409 73.1081 67.8074 73.0597 67.7482L53.8176 44.6693C53.1918 43.9275 52.2716 43.5 51.3021 43.5H50.6296C48.8095 43.5 47.334 44.9784 47.334 46.8022V71.197C47.334 73.0207 48.8095 74.4991 50.6296 74.4991C51.7754 74.4991 52.8393 73.9039 53.4395 72.9253L59.9064 63.305C60.1171 62.9879 60.0316 62.5605 59.7151 62.3494C59.4586 62.1781 59.1193 62.1993 58.8857 62.4006L52.5202 67.9328C52.4144 68.0282 52.2514 68.0184 52.1562 67.9125C52.113 67.8639 52.0901 67.8012 52.0909 67.7367V50.4125C52.0909 50.2695 52.2064 50.1547 52.3492 50.1547C52.425 50.1547 52.4982 50.1882 52.5466 50.2474L71.786 73.3307C72.4127 74.0717 73.3329 74.4991 74.3016 74.5H74.9741C76.7942 74.5009 78.2705 73.0233 78.2723 71.1996V46.8022C78.2714 44.9784 76.7959 43.5 74.9758 43.5Z" fill="white"/>
<path d="M186.543 48.2691V57.7472H198.025V48.2691H200.762V69.73H198.025V60.1618H186.543V69.73H183.821V48.2691H186.543Z" fill="white"/>
<path d="M215.62 47.8522C221.971 47.8522 226.3 51.8759 226.3 58.9996C226.3 66.1232 221.971 70.1469 215.62 70.1469C209.27 70.1469 204.941 66.1232 204.941 58.9996C204.941 51.8759 209.27 47.8522 215.62 47.8522ZM215.62 67.7924C220.395 67.7924 223.518 64.6032 223.518 58.9996C223.518 53.3959 220.394 50.2068 215.62 50.2068C210.847 50.2068 207.723 53.3959 207.723 58.9996C207.723 64.6032 210.847 67.7924 215.62 67.7924Z" fill="white"/>
<path d="M247.019 54.2755C247.019 58.1208 244.208 60.2819 240.742 60.2819H237.054L246.87 69.2831V69.73H243.791L233.484 60.2219H233.186V69.73H230.494V48.2691H240.504C244.119 48.2691 247.019 50.4311 247.019 54.2755ZM240.117 58.0758C242.601 58.0758 244.371 56.7793 244.371 54.3347C244.371 51.8901 242.601 50.5795 240.117 50.5795H233.186V58.0758H240.117Z" fill="white"/>
<path d="M253.771 48.2691V69.73H251.035V48.2691H253.771Z" fill="white"/>
<path d="M274.237 48.2691V50.2509L261.475 67.4197H274.549V69.73H257.965V67.7482L270.726 50.5795H258.426V48.2691H274.237Z" fill="white"/>
<path d="M287.356 47.8522C293.706 47.8522 298.035 51.8759 298.035 58.9996C298.035 66.1232 293.706 70.1469 287.356 70.1469C281.005 70.1469 276.676 66.1232 276.676 58.9996C276.676 51.8759 281.005 47.8522 287.356 47.8522ZM287.356 67.7924C292.13 67.7924 295.253 64.6032 295.253 58.9996C295.253 53.3959 292.129 50.2068 287.356 50.2068C282.582 50.2068 279.458 53.3959 279.458 58.9996C279.458 64.6032 282.582 67.7924 287.356 67.7924Z" fill="white"/>
<path d="M305.501 48.2691L316.463 65.7505H316.701V48.2691H319.334V69.73H316.047L305.1 52.2486H304.862V69.73H302.229V48.2691H305.501Z" fill="white"/>
<path d="M104.753 89.22H109.433L115.337 106.14V106.5H111.629L110.297 102.42H103.805L102.473 106.5H98.8486V106.14L104.753 89.22ZM104.765 99.36H109.337L107.153 92.664H106.961L104.765 99.36ZM117.355 89.22H121.627L127.315 102.576H127.507L133.195 89.22H137.383V106.5H134.059V95.232H133.867L129.067 106.5H125.683L120.883 95.232H120.691V106.5H117.355V89.22ZM145.323 89.22H150.003L155.907 106.14V106.5H152.199L150.867 102.42H144.375L143.043 106.5H139.419V106.14L145.323 89.22ZM145.335 99.36H149.907L147.723 92.664H147.531L145.335 99.36ZM157.592 98.796H164.996V101.448H157.592V98.796ZM167.273 97.44C167.273 95.148 169.193 93.672 172.805 93.672C176.429 93.672 178.445 95.148 178.637 97.476V97.836H175.445C175.349 96.564 174.305 96.168 172.829 96.168C171.353 96.168 170.597 96.588 170.597 97.344C170.597 98.1 171.197 98.388 172.073 98.52L174.569 98.88C177.113 99.24 178.817 100.344 178.817 102.684C178.817 105.036 177.029 106.764 173.153 106.764C169.265 106.764 167.165 105.036 167.057 102.852V102.492H170.321C170.405 103.74 171.629 104.256 173.153 104.256C174.689 104.256 175.469 103.728 175.469 102.888C175.469 102.084 174.857 101.724 173.777 101.568L171.281 101.208C168.869 100.86 167.273 99.72 167.273 97.44ZM180.243 100.212C180.243 95.832 182.823 93.648 186.699 93.648C190.527 93.648 192.831 95.892 192.831 99.756V101.184H183.615C183.663 102.888 184.767 104.184 186.675 104.184C188.559 104.184 189.327 103.236 189.519 102.468H192.591V102.828C192.195 104.556 190.635 106.788 186.735 106.788C182.835 106.788 180.243 104.592 180.243 100.212ZM183.651 98.784H189.531C189.507 97.368 188.583 96.216 186.651 96.216C184.779 96.216 183.795 97.404 183.651 98.784ZM194.507 97.44C194.507 95.148 196.427 93.672 200.039 93.672C203.663 93.672 205.679 95.148 205.871 97.476V97.836H202.679C202.583 96.564 201.539 96.168 200.063 96.168C198.587 96.168 197.831 96.588 197.831 97.344C197.831 98.1 198.431 98.388 199.307 98.52L201.803 98.88C204.347 99.24 206.051 100.344 206.051 102.684C206.051 105.036 204.263 106.764 200.387 106.764C196.499 106.764 194.399 105.036 194.291 102.852V102.492H197.555C197.639 103.74 198.863 104.256 200.387 104.256C201.923 104.256 202.703 103.728 202.703 102.888C202.703 102.084 202.091 101.724 201.011 101.568L198.515 101.208C196.103 100.86 194.507 99.72 194.507 97.44ZM207.585 97.44C207.585 95.148 209.505 93.672 213.117 93.672C216.741 93.672 218.757 95.148 218.949 97.476V97.836H215.757C215.661 96.564 214.617 96.168 213.141 96.168C211.665 96.168 210.909 96.588 210.909 97.344C210.909 98.1 211.509 98.388 212.385 98.52L214.881 98.88C217.425 99.24 219.129 100.344 219.129 102.684C219.129 105.036 217.341 106.764 213.465 106.764C209.577 106.764 207.477 105.036 207.369 102.852V102.492H210.633C210.717 103.74 211.941 104.256 213.465 104.256C215.001 104.256 215.781 103.728 215.781 102.888C215.781 102.084 215.169 101.724 214.089 101.568L211.593 101.208C209.181 100.86 207.585 99.72 207.585 97.44ZM221.179 93.936H224.719V106.5H221.179V93.936ZM221.131 92.316V89.436H224.767V92.316H221.131ZM226.907 100.224C226.907 95.88 229.763 93.648 233.723 93.648C237.683 93.648 240.539 95.88 240.539 100.224C240.539 104.556 237.683 106.788 233.723 106.788C229.763 106.788 226.907 104.556 226.907 100.224ZM230.483 100.224C230.483 102.732 231.743 104.088 233.723 104.088C235.703 104.088 236.963 102.732 236.963 100.224C236.963 97.716 235.703 96.348 233.723 96.348C231.743 96.348 230.483 97.716 230.483 100.224ZM242.718 93.936H246.138V95.124H246.33C247.17 94.128 248.454 93.684 250.074 93.684C253.074 93.684 254.898 95.256 254.898 98.364V106.5H251.37V98.664C251.37 97.2 250.578 96.468 249.114 96.468C247.53 96.468 246.258 97.32 246.258 99.468V106.5H242.718V93.936ZM257.085 97.44C257.085 95.148 259.005 93.672 262.617 93.672C266.241 93.672 268.257 95.148 268.449 97.476V97.836H265.257C265.161 96.564 264.117 96.168 262.641 96.168C261.165 96.168 260.409 96.588 260.409 97.344C260.409 98.1 261.009 98.388 261.885 98.52L264.381 98.88C266.925 99.24 268.629 100.344 268.629 102.684C268.629 105.036 266.841 106.764 262.965 106.764C259.077 106.764 256.977 105.036 256.869 102.852V102.492H260.133C260.217 103.74 261.441 104.256 262.965 104.256C264.501 104.256 265.281 103.728 265.281 102.888C265.281 102.084 264.669 101.724 263.589 101.568L261.093 101.208C258.681 100.86 257.085 99.72 257.085 97.44Z" fill="white"/>
</svg>
