 <svg
    width="272"
    height="23"
    viewBox="0 0 272 23"
    fill="none"
    xmlns="http://www.w3.org/2000/svg"
  >
    <path
      fill-rule="evenodd"
      clip-rule="evenodd"
      d="M1.67097 10.6413V1.90592H9.91954C13.5198 1.90592 15.5458 3.55662 15.5458 6.00404V6.06843C15.5458 8.66851 13.6768 10.2333 10.924 10.5721V12.1965C14.7368 12.4184 16.8014 13.9617 16.8014 16.4879V16.5499C16.8014 19.3455 14.3553 21.0917 10.4966 21.0917H1.67097V12.1655V10.6413ZM13.4233 11.1827C15.256 10.4504 17.2505 8.92613 17.2505 5.90861V5.84422C17.2505 2.50943 14.3239 0.381636 9.95093 0.381636H0V22.6183H10.4339C15.2898 22.6183 18.5062 20.2663 18.5062 16.5499V16.4879C18.5062 13.4059 16.1229 11.8816 13.4233 11.1827ZM254.861 22.6183V0.381636H271.841V4.73261H259.782V9.24342H270.392V13.5968H259.782V18.265H272V22.6183H254.861ZM238.878 23C231.868 23 227.046 18.1386 227.046 11.562V11.4976C227.046 5.17629 232.03 0 238.849 0C242.898 0 245.342 1.08058 247.691 3.04854L244.572 6.76498C242.835 5.33613 241.29 4.51077 238.687 4.51077C235.084 4.51077 232.223 7.65472 232.223 11.4356V11.4976C232.223 15.5647 235.05 18.5512 239.042 18.5512C240.841 18.5512 242.449 18.1076 243.702 17.2178V14.0405H238.718V9.81589H248.495V19.472C246.18 21.4113 242.995 23 238.878 23ZM216.82 22.6183L205.917 8.48247V22.6183H201.032V0.381636H205.596L216.143 14.0715V0.381636H221.033V22.6183H216.82ZM186.947 13.3105L183.953 6.09944L180.964 13.3105H186.947ZM180.964 13.3105L177.137 22.6183H172.088L181.734 0.221848H186.303L195.949 22.6183H190.772L186.947 13.3105H180.964ZM162.057 22.6183V13.6898H152.925V22.6183H147.972V0.381636H152.925V9.18139H162.057V0.381636H167.009V22.6183H162.057ZM133.18 23C126.554 23 121.635 17.9477 121.635 11.562V11.4976C121.635 5.17629 126.457 0 133.37 0C137.618 0 140.158 1.39782 142.247 3.43017L139.096 7.02021C137.359 5.46254 135.59 4.51077 133.339 4.51077C129.546 4.51077 126.81 7.62371 126.81 11.4356V11.4976C126.81 15.3118 129.48 18.4892 133.339 18.4892C135.913 18.4892 137.487 17.4706 139.257 15.882L142.406 19.0283C140.093 21.4757 137.521 23 133.18 23ZM101.661 14.9946V22.6183H99.9898V0.381636H101.661V14.9946ZM114.688 0.381636H116.972L107.132 10.1952L117.39 22.6183H115.205L105.01 10.2429L114.688 0.381636ZM84.8425 23C78.4097 23 73.6528 17.9477 73.6528 11.562V11.4976C73.6528 5.20969 78.4097 0 84.9076 0C88.9281 0 91.3379 1.45986 93.6536 3.55662L92.4656 4.76362C90.5025 2.8887 88.2496 1.49324 84.8739 1.49324C79.4722 1.49324 75.3865 5.8442 75.3865 11.4356V11.4976C75.3865 17.1224 79.5374 21.5067 84.9076 21.5067C88.153 21.5067 90.3721 20.2663 92.6564 18.0431L93.7816 19.1237C91.4032 21.4423 88.8315 23 84.8425 23ZM65.6119 11.4976C65.6119 6.00403 61.5624 1.49324 55.999 1.49324C50.4332 1.49324 46.4465 5.93962 46.4465 11.4356V11.4976C46.4465 16.9959 50.4984 21.5067 56.0618 21.5067C61.6252 21.5067 65.6119 17.058 65.6119 11.562V11.4976ZM55.999 23C49.1799 23 44.7103 17.6305 44.7103 11.562V11.4976C44.7103 5.43153 49.2451 0 56.0618 0C62.8809 0 67.348 5.36951 67.348 11.4356C67.3818 11.4666 67.3818 11.4666 67.348 11.4976C67.348 17.566 62.8157 23 55.999 23ZM25.4822 22.6183V0.381636H27.1556V21.0917H40.3712V22.6183H25.4822Z"
      fill="black"
    />
  </svg>