<svg width="31" height="32" viewBox="0 0 31 32" fill="none" xmlns="http://www.w3.org/2000/svg">
  <path d="M15.5 28.9173C22.6337 28.9173 28.4166 23.1343 28.4166 16.0007C28.4166 8.86697 22.6337 3.08398 15.5 3.08398C8.3663 3.08398 2.58331 8.86697 2.58331 16.0007C2.58331 23.1343 8.3663 28.9173 15.5 28.9173Z" stroke="currentColor" stroke-width="2.5" stroke-linecap="round" stroke-linejoin="round"/>
  <path d="M19.016 11.1775C19.6471 10.9672 19.9626 10.862 20.1724 10.9368C20.355 11.0019 20.4987 11.1456 20.5638 11.3282C20.6386 11.538 20.5335 11.8536 20.3231 12.4846L18.4017 18.2488C18.3418 18.4286 18.3118 18.5184 18.2608 18.593C18.2156 18.6591 18.1585 18.7162 18.0924 18.7615C18.0177 18.8125 17.9279 18.8425 17.7482 18.9024L11.9839 20.8238C11.3529 21.0341 11.0374 21.1393 10.8275 21.0645C10.645 20.9994 10.5013 20.8557 10.4362 20.6731C10.3613 20.4633 10.4665 20.1477 10.6769 19.5167L12.5983 13.7525C12.6582 13.5727 12.6881 13.4829 12.7392 13.4083C12.7844 13.3422 12.8415 13.2851 12.9076 13.2398C12.9822 13.1888 13.0721 13.1588 13.2518 13.0989L19.016 11.1775Z" stroke="currentColor" stroke-width="2.5" stroke-linecap="round" stroke-linejoin="round"/>
</svg>
