 <svg
    width="197"
    height="76"
    viewBox="0 0 197 76"
    fill="none"
    xmlns="http://www.w3.org/2000/svg"
  >
    <path
      fill-rule="evenodd"
      clip-rule="evenodd"
      d="M123.849 0.354046C122.105 -0.649845 119.921 0.600589 119.921 2.60331V15.0766C119.921 15.4796 119.479 15.7294 119.13 15.5236L95.2577 1.4421C93.5134 0.413173 91.3048 1.66194 91.3048 3.67716V37.1883C91.3048 39.2035 93.5134 40.4523 95.2577 39.4234L119.13 25.3419C119.479 25.1361 119.921 25.3859 119.921 25.7889V37.7423C119.921 39.745 122.105 40.9955 123.849 39.9916L154.381 22.4221C156.121 21.4207 156.121 18.9249 154.381 17.9235L123.849 0.354046ZM122.014 2.60331C122.014 2.20276 122.451 1.95268 122.8 2.15345L153.332 19.723C153.68 19.9232 153.68 20.4224 153.332 20.6227L122.8 38.1922C122.451 38.3929 122.014 38.1429 122.014 37.7423V25.7889C122.014 23.7737 119.806 22.5249 118.061 23.5538L94.1888 37.6353C93.84 37.8411 93.3983 37.5914 93.3983 37.1883V3.67716C93.3983 3.27412 93.84 3.02436 94.1888 3.23015L118.061 17.3117C119.806 18.3406 122.014 17.0918 122.014 15.0766V2.60331Z"
      fill="black"
    />
    <path
      d="M53.966 75.1349C55.4621 75.7116 57.0922 76 58.8563 76C60.5757 76 62.1834 75.7116 63.6796 75.1349C65.1757 74.5582 66.4373 73.7042 67.4645 72.5729L65.8902 71.0091C64.93 71.9851 63.8694 72.6949 62.7082 73.1386C61.547 73.5822 60.2966 73.804 58.9568 73.804C57.55 73.804 56.2437 73.5711 55.0378 73.1053C53.832 72.6173 52.7825 71.9408 51.8893 71.0757C50.9961 70.1884 50.2927 69.168 49.7791 68.0146C49.2879 66.839 49.0422 65.5524 49.0422 64.155C49.0422 62.7575 49.2879 61.4821 49.7791 60.3286C50.2927 59.153 50.9961 58.1327 51.8893 57.2676C52.7825 56.3803 53.832 55.7038 55.0378 55.2379C56.2437 54.7499 57.55 54.5059 58.9568 54.5059C60.2966 54.5059 61.547 54.7278 62.7082 55.1714C63.8694 55.5929 64.93 56.2916 65.8902 57.2676L67.4645 55.7038C66.4373 54.5725 65.1757 53.7296 63.6796 53.175C62.1834 52.5983 60.5868 52.31 58.8898 52.31C57.1257 52.31 55.4956 52.6094 53.9995 53.2083C52.5034 53.785 51.1971 54.6058 50.0806 55.6705C48.9864 56.7352 48.1267 57.9885 47.5015 59.4303C46.8985 60.8721 46.5971 62.447 46.5971 64.155C46.5971 65.863 46.8985 67.4379 47.5015 68.8797C48.1267 70.3215 48.9864 71.5748 50.0806 72.6395C51.1747 73.7042 52.4699 74.536 53.966 75.1349Z"
      fill="black"
    />
    <path
      fill-rule="evenodd"
      clip-rule="evenodd"
      d="M0 75.8004V52.5096H9.54609C12.047 52.5096 14.2354 53.0087 16.1111 54.0069C18.0092 54.9829 19.4829 56.347 20.5325 58.0994C21.582 59.8517 22.1067 61.8703 22.1067 64.155C22.1067 66.4397 21.582 68.4582 20.5325 70.2106C19.4829 71.9629 18.0092 73.3382 16.1111 74.3364C14.2354 75.3124 12.047 75.8004 9.54609 75.8004H0ZM2.47863 73.6709H9.4121C11.4888 73.6709 13.2864 73.2717 14.8048 72.4731C16.3456 71.6524 17.5402 70.5322 18.3888 69.1126C19.2373 67.6708 19.6616 66.0182 19.6616 64.155C19.6616 62.2695 19.2373 60.617 18.3888 59.1974C17.5402 57.7777 16.3456 56.6687 14.8048 55.8701C13.2864 55.0494 11.4888 54.639 9.4121 54.639H2.47863V73.6709Z"
      fill="black"
    />
    <path
      d="M29.4814 73.6709V65.0201H41.6066V62.9239H29.4814V54.639H43.0804V52.5096H27.0028V75.8004H43.5828V73.6709H29.4814Z"
      fill="black"
    />
    <path
      fill-rule="evenodd"
      clip-rule="evenodd"
      d="M67.7382 75.8004L78.4566 52.5096H80.9018L91.6202 75.8004H89.0076L86.2047 69.5784H73.1202L70.3173 75.8004H67.7382ZM79.6624 55.0556L85.3054 67.582H74.0195L79.6624 55.0556Z"
      fill="black"
    />
    <path
      d="M96.2692 75.1682C97.8769 75.7227 99.5517 76 101.293 76C103.303 76 104.944 75.7116 106.217 75.1349C107.512 74.536 108.473 73.7596 109.098 72.8058C109.723 71.8298 110.036 70.7762 110.036 69.6449C110.036 68.425 109.768 67.4379 109.232 66.6837C108.718 65.9295 108.026 65.3306 107.155 64.887C106.307 64.4212 105.369 64.0441 104.341 63.7557C103.337 63.4674 102.321 63.2012 101.293 62.9572C100.266 62.7132 99.3172 62.4359 98.4464 62.1254C97.5978 61.8148 96.9056 61.3823 96.3697 60.8277C95.8561 60.2732 95.5993 59.5412 95.5993 58.6317C95.5993 57.8332 95.8114 57.1234 96.2357 56.5023C96.6823 55.859 97.3633 55.3488 98.2789 54.9718C99.1944 54.5947 100.356 54.4061 101.762 54.4061C102.812 54.4061 103.895 54.5614 105.011 54.8719C106.15 55.1825 107.222 55.6705 108.227 56.3359L109.064 54.3729C108.126 53.7296 107.01 53.2305 105.715 52.8756C104.42 52.4985 103.113 52.31 101.796 52.31C99.8085 52.31 98.1784 52.6094 96.9056 53.2083C95.6328 53.785 94.6837 54.5614 94.0585 55.5374C93.4556 56.4912 93.1541 57.5448 93.1541 58.6983C93.1541 59.9405 93.4109 60.9497 93.9245 61.7261C94.4604 62.4803 95.1527 63.0903 96.0012 63.5561C96.8721 64.0219 97.8211 64.399 98.8483 64.6873C99.8755 64.9535 100.903 65.2086 101.93 65.4526C102.957 65.6966 103.895 65.985 104.743 66.3177C105.592 66.6282 106.273 67.0608 106.787 67.6153C107.323 68.1699 107.59 68.9019 107.59 69.8113C107.59 70.5655 107.367 71.2531 106.921 71.8742C106.496 72.4953 105.815 72.9944 104.877 73.3715C103.962 73.7264 102.767 73.9038 101.293 73.9038C99.7527 73.9038 98.2789 73.6377 96.8721 73.1053C95.4876 72.5508 94.3823 71.8742 93.5561 71.0757L92.5847 72.9722C93.4556 73.8595 94.6837 74.5915 96.2692 75.1682Z"
      fill="black"
    />
    <path
      fill-rule="evenodd"
      clip-rule="evenodd"
      d="M125.016 76C123.252 76 121.61 75.7116 120.092 75.1349C118.596 74.536 117.29 73.7042 116.173 72.6395C115.079 71.5526 114.219 70.2993 113.594 68.8797C112.991 67.4379 112.69 65.863 112.69 64.155C112.69 62.447 112.991 60.8832 113.594 59.4636C114.219 58.0217 115.079 56.7685 116.173 55.7038C117.29 54.6169 118.596 53.785 120.092 53.2083C121.588 52.6094 123.229 52.31 125.016 52.31C126.78 52.31 128.41 52.6094 129.906 53.2083C131.402 53.785 132.697 54.6058 133.791 55.6705C134.908 56.7352 135.768 57.9885 136.371 59.4303C136.996 60.8721 137.308 62.447 137.308 64.155C137.308 65.863 136.996 67.4379 136.371 68.8797C135.768 70.3215 134.908 71.5748 133.791 72.6395C132.697 73.7042 131.402 74.536 129.906 75.1349C128.41 75.7116 126.78 76 125.016 76ZM125.016 73.804C126.423 73.804 127.718 73.5711 128.901 73.1053C130.107 72.6173 131.145 71.9408 132.016 71.0757C132.909 70.1884 133.602 69.168 134.093 68.0146C134.584 66.839 134.83 65.5524 134.83 64.155C134.83 62.7575 134.584 61.4821 134.093 60.3286C133.602 59.153 132.909 58.1327 132.016 57.2676C131.145 56.3803 130.107 55.7038 128.901 55.2379C127.718 54.7499 126.423 54.5059 125.016 54.5059C123.609 54.5059 122.303 54.7499 121.097 55.2379C119.891 55.7038 118.842 56.3803 117.948 57.2676C117.077 58.1327 116.385 59.153 115.872 60.3286C115.38 61.4821 115.135 62.7575 115.135 64.155C115.135 65.5302 115.38 66.8057 115.872 67.9813C116.385 69.157 117.077 70.1884 117.948 71.0757C118.842 71.9408 119.891 72.6173 121.097 73.1053C122.303 73.5711 123.609 73.804 125.016 73.804Z"
      fill="black"
    />
    <path
      d="M142.194 52.5096V75.8004H144.673V56.9137L159.746 75.8004H161.789V52.5096H159.344V71.399L144.237 52.5096H142.194Z"
      fill="black"
    />
    <path d="M168.772 75.8004V52.5096H171.25V75.8004H168.772Z" fill="black" />
    <path
      d="M183.501 75.1349C184.998 75.7116 186.628 76 188.392 76C190.111 76 191.719 75.7116 193.215 75.1349C194.711 74.5582 195.973 73.7042 197 72.5729L195.426 71.0091C194.466 71.9851 193.405 72.6949 192.244 73.1386C191.083 73.5822 189.832 73.804 188.492 73.804C187.085 73.804 185.779 73.5711 184.573 73.1053C183.368 72.6173 182.318 71.9408 181.425 71.0757C180.532 70.1884 179.828 69.168 179.315 68.0146C178.823 66.839 178.578 65.5524 178.578 64.155C178.578 62.7575 178.823 61.4821 179.315 60.3286C179.828 59.153 180.532 58.1327 181.425 57.2676C182.318 56.3803 183.368 55.7038 184.573 55.2379C185.779 54.7499 187.085 54.5059 188.492 54.5059C189.832 54.5059 191.083 54.7278 192.244 55.1714C193.405 55.5929 194.466 56.2916 195.426 57.2676L197 55.7038C195.973 54.5725 194.711 53.7296 193.215 53.175C191.719 52.5983 190.122 52.31 188.425 52.31C186.661 52.31 185.031 52.6094 183.535 53.2083C182.039 53.785 180.733 54.6058 179.616 55.6705C178.522 56.7352 177.662 57.9885 177.037 59.4303C176.434 60.8721 176.133 62.447 176.133 64.155C176.133 65.863 176.434 67.4379 177.037 68.8797C177.662 70.3215 178.522 71.5748 179.616 72.6395C180.71 73.7042 182.005 74.536 183.501 75.1349Z"
      fill="black"
    />
  </svg>