  <svg
    width="108"
    height="46"
    viewBox="0 0 108 46"
    fill="none"
    xmlns="http://www.w3.org/2000/svg"
  >
    <path d="M17.7669 0H25.5541V21.7441H17.7669V0Z" fill="black" />
    <path d="M33.8327 23.5061H41.6199V45.2502H33.8327V23.5061Z" fill="black" />
    <path d="M82.4082 0H90.1954V21.7441H82.4082V0Z" fill="black" />
    <path d="M33.8327 0H41.6199V21.7441H33.8327V0Z" fill="black" />
    <path
      d="M74.1296 23.5061V45.2502H66.3424V42.8509H66.2668C65.6242 43.9006 64.6791 44.6879 63.5073 45.2127C62.2976 45.7376 61.0123 46 59.6515 46C56.4761 46 53.83 44.8753 51.7131 42.5884C49.6339 40.3016 48.5755 37.5648 48.5755 34.3782C48.5755 31.1915 49.5962 28.4548 51.6753 26.2054C53.7544 23.956 56.3627 22.8313 59.5759 22.8313C62.4866 22.8313 64.7547 23.7685 66.3802 25.6805V23.5436H74.1296V23.5061ZM65.284 30.8916C64.3767 29.9544 63.1671 29.467 61.6172 29.467C60.0673 29.467 58.8576 29.9544 57.9504 30.8916C57.0431 31.8289 56.5895 32.991 56.5895 34.3782C56.5895 35.8028 57.0431 36.965 57.9504 37.8647C58.8576 38.7645 60.0673 39.2518 61.6172 39.2518C63.1671 39.2518 64.3767 38.802 65.284 37.8647C66.1912 36.965 66.6448 35.7653 66.6448 34.3782C66.607 33.0285 66.1912 31.8663 65.284 30.8916Z"
      fill="black"
    />
    <path
      d="M25.5541 23.5061V45.2502H17.7669V42.8509H17.6913C17.0487 43.9006 16.1036 44.6879 14.9318 45.2127C13.7221 45.7376 12.4368 46 11.076 46C7.90061 46 5.25447 44.8753 3.13756 42.5884C1.05845 40.3016 0 37.5648 0 34.3782C0 31.1915 1.02065 28.4548 3.09976 26.2054C5.17887 23.956 7.7872 22.8313 11.0004 22.8313C13.9111 22.8313 16.1792 23.7685 17.8047 25.6805V23.5436H25.5541V23.5061ZM16.7085 30.8916C15.8012 29.9544 14.5916 29.467 13.0417 29.467C11.4918 29.467 10.2821 29.9544 9.37488 30.8916C8.46764 31.8289 8.01401 32.991 8.01401 34.3782C8.01401 35.8028 8.46764 36.965 9.37488 37.8647C10.2821 38.7645 11.4918 39.2518 13.0417 39.2518C14.5916 39.2518 15.8012 38.802 16.7085 37.8647C17.6157 36.965 18.0693 35.7653 18.0693 34.3782C18.0315 33.0285 17.5779 31.8663 16.7085 30.8916Z"
      fill="black"
    />
    <path
      d="M90.1953 25.643C91.8208 23.7686 94.0889 22.7938 96.9996 22.7938C100.175 22.7938 102.821 23.9185 104.9 26.1679C106.979 28.4173 108 31.154 108 34.3407C108 37.5273 106.942 40.2641 104.862 42.5509C102.783 44.8378 100.137 45.9625 96.924 45.9625C95.5632 45.9625 94.2779 45.7001 93.0682 45.1752C91.8586 44.6504 90.9513 43.8631 90.3087 42.8134H90.2331V45.2127H82.4459V23.4686H90.1953V25.643ZM89.9307 34.4157C89.9307 35.8403 90.3843 37.0025 91.2916 37.9022C92.1988 38.802 93.4085 39.2893 94.9583 39.2893C96.5082 39.2893 97.7179 38.8395 98.6251 37.9022C99.5324 37.0025 99.986 35.8028 99.986 34.4157C99.986 33.0285 99.5324 31.8664 98.6251 30.9291C97.7179 29.9919 96.5082 29.5045 94.9583 29.5045C93.4085 29.5045 92.1988 29.9919 91.2916 30.9291C90.3843 31.8664 89.9307 33.0285 89.9307 34.4157Z"
      fill="black"
    />
  </svg>