  <svg
    width="183"
    height="24"
    viewBox="0 0 183 24"
    fill="none"
    xmlns="http://www.w3.org/2000/svg"
  >
    <path
      d="M38.0339 14.3062V5.33454H50.5181V9.93098H56.3722L56.3721 0.276H32.1385V23.7243H38.0339V19.3977H54.4078V14.3062H38.0339Z"
      fill="black"
    />
    <path
      d="M77.2432 18.733H63.543L61.0902 23.7243H54.6159L66.4192 0.276H74.3644L86.2011 23.7243H79.6947L77.2419 18.733H77.2432ZM75.0529 14.244L70.4097 4.73074L65.7345 14.244H75.0529Z"
      fill="black"
    />
    <path
      d="M115.879 16.8913C115.879 20.8437 113.628 23.7243 108.441 23.7243H87.5623V0.276H107.659C112.847 0.276 114.445 2.98919 114.445 6.43936C114.445 8.08072 113.792 9.6891 112.651 10.9956C114.61 12.2348 115.88 14.1781 115.88 16.8913H115.879ZM93.4342 9.48863H105.57C107.136 9.48863 108.572 9.48863 108.572 7.04311C108.572 4.59756 107.136 4.63185 105.538 4.63185H93.4342V9.48863ZM110.008 16.5906C110.008 14.1121 108.572 14.1121 107.006 14.1121H93.4342V19.0692H107.006C108.572 19.0692 110.008 19.0692 110.008 16.5906Z"
      fill="black"
    />
    <path
      d="M139.623 16.7568L143.853 23.7243H136.902L133.197 17.4608H123.689V23.7243H117.787V0.276H135.821C141.033 0.276 144.607 3.65897 144.607 8.88493C144.607 12.7041 142.705 15.5175 139.623 16.7568ZM123.687 12.4023H134.18C135.95 12.4023 138.704 12.4023 138.704 8.88493C138.704 5.36752 135.95 5.33454 134.18 5.33454H123.687V12.4023Z"
      fill="black"
    />
    <path d="M152.367 23.7243H146.513V0.276H152.367V23.7243Z" fill="black" />
    <path
      d="M168.685 0C177.824 0 182.409 3.53279 183 10.2664H177.006C176.449 6.5001 173.6 5.03345 168.685 5.03345C162.691 5.03345 160.169 7.20065 160.169 11.9665C160.169 16.7325 162.725 18.9665 168.685 18.9665C173.566 18.9665 176.449 17.467 177.006 13.6667H183C182.411 20.4331 177.824 24 168.685 24C158.597 24 154.273 19.7339 154.273 11.9678C154.273 4.2017 158.597 0 168.685 0Z"
      fill="black"
    />
    <path
      d="M10.2843 0.520967V4.77214C10.2843 5.43622 10.1808 6.07607 9.98914 6.67594C9.91422 6.90983 9.82625 7.13755 9.72556 7.35851C9.11951 8.68764 8.06086 9.7605 6.74985 10.3749C6.53297 10.4762 6.30969 10.5654 6.07978 10.641C6.07826 10.6413 6.07673 10.6422 6.07521 10.6425C5.48554 10.8358 4.85581 10.9403 4.20273 10.9403H0C0.0797976 9.41634 0.46473 7.97441 1.09416 6.67628H3.09921L1.82883 5.38923C2.61782 4.19897 3.63004 3.17342 4.80483 2.3735L6.07554 3.66087V1.62916C7.35683 0.991468 8.78008 0.601799 10.2843 0.520967Z"
      fill="black"
    />
    <path
      d="M10.284 19.185V23.4435C8.7795 23.3627 7.35601 22.973 6.07475 22.335V20.304L4.80412 21.5913C3.6296 20.7914 2.61713 19.7655 1.82816 18.5756L3.09851 17.2885H1.09409C0.464386 15.9901 0.0797953 14.5482 0 13.0242H4.19592C4.85173 13.0242 5.48324 13.129 6.07504 13.3232C6.30589 13.3991 6.53126 13.4882 6.74904 13.5902C8.06063 14.2043 9.11987 15.2768 9.7262 16.6051C9.82629 16.8245 9.91394 17.051 9.98857 17.2839C9.98917 17.2854 9.98979 17.287 9.99012 17.2885C10.1812 17.886 10.284 18.523 10.284 19.185Z"
      fill="black"
    />
    <path
      d="M21.4764 17.2888H19.3716L20.7054 18.5759C19.877 19.7661 18.8142 20.7917 17.5807 21.5913L16.2466 20.3042V22.3353C14.9013 22.973 13.407 23.3633 11.827 23.4435V19.1924C11.827 18.5279 11.9356 17.8881 12.1372 17.2885C12.2152 17.0547 12.3082 16.8266 12.4136 16.6057C13.05 15.2768 14.1615 14.2036 15.5379 13.5893C15.7656 13.4879 16.0004 13.3991 16.2415 13.3238C16.2434 13.3232 16.245 13.3226 16.2466 13.3223C16.866 13.1286 17.5263 13.0242 18.2123 13.0242H22.6255C22.5418 14.5484 22.1376 15.9907 21.4764 17.2888Z"
      fill="black"
    />
    <path
      d="M22.6255 10.9403H18.2195C17.5312 10.9403 16.8681 10.8355 16.2464 10.6413C16.004 10.5654 15.768 10.476 15.539 10.3742C14.1615 9.76021 13.0497 8.68765 12.413 7.35943C12.3079 7.13971 12.2155 6.91321 12.1372 6.68055C12.1369 6.67901 12.1359 6.67719 12.1356 6.67566C11.9352 6.07822 11.827 5.44083 11.827 4.77885V0.520967C13.4064 0.601799 14.9007 0.991468 16.2461 1.62916V3.66025L17.5802 2.37321C18.8138 3.17285 19.8766 4.19835 20.705 5.3886L19.3711 6.67566H21.4761C22.1373 7.97378 22.5414 9.41572 22.6249 10.9403H22.6255Z"
      fill="black"
    />
  </svg>