<svg width="176" height="31" viewBox="0 0 176 31" fill="none" xmlns="http://www.w3.org/2000/svg">
<path d="M43.4402 4.625V14.0321H54.859V4.625H57.5806V25.9251H54.859V16.4286H43.4402V25.9251H40.7334V4.625H43.4402Z" fill="#231F20"/>
<path d="M72.3576 4.21094C78.6731 4.21094 82.9778 8.20449 82.9778 15.2747C82.9778 22.3449 78.6731 26.3385 72.3576 26.3385C66.042 26.3385 61.7373 22.3449 61.7373 15.2747C61.7373 8.20449 66.042 4.21094 72.3576 4.21094ZM72.3576 24.0016C77.1058 24.0016 80.2114 20.8364 80.2114 15.2747C80.2114 9.71302 77.1049 6.54781 72.3576 6.54781C67.6102 6.54781 64.5037 9.71302 64.5037 15.2747C64.5037 20.8364 67.6102 24.0016 72.3576 24.0016Z" fill="#231F20"/>
<path d="M103.583 10.5864C103.583 14.4029 100.788 16.5478 97.3411 16.5478H93.6728L103.435 25.4816V25.9251H100.373L90.1228 16.4882H89.8274V25.9251H87.1504V4.625H97.1053C100.7 4.625 103.584 6.76991 103.584 10.5855L103.583 10.5864ZM96.7196 14.3582C99.1898 14.3582 100.95 13.0714 100.95 10.6451C100.95 8.21884 99.1898 6.91805 96.7196 6.91805H89.8265V14.3582H96.7196Z" fill="#231F20"/>
<path d="M110.298 4.625V25.9251H107.576V4.625H110.298Z" fill="#231F20"/>
<path d="M130.652 4.625V6.59197L117.96 23.632H130.962V25.9251H114.47V23.9581L127.16 6.91805H114.928V4.625H130.652Z" fill="#231F20"/>
<path d="M143.698 4.21094C150.014 4.21094 154.319 8.20449 154.319 15.2747C154.319 22.3449 150.014 26.3385 143.698 26.3385C137.383 26.3385 133.078 22.3449 133.078 15.2747C133.078 8.20449 137.383 4.21094 143.698 4.21094ZM143.698 24.0016C148.447 24.0016 151.552 20.8364 151.552 15.2747C151.552 9.71302 148.446 6.54781 143.698 6.54781C138.951 6.54781 135.845 9.71302 135.845 15.2747C135.845 20.8364 138.951 24.0016 143.698 24.0016Z" fill="#231F20"/>
<path d="M161.743 4.625L172.645 21.9754H172.881V4.625H175.5V25.9251H172.231L161.344 8.57472H161.108V25.9251H158.489V4.625H161.743Z" fill="#231F20"/>
<path d="M23.0221 29.4856L15.8262 11.4954L18.5063 29.9249C18.5674 30.3432 18.9263 30.6541 19.349 30.6541H22.2317C22.8343 30.6541 23.2456 30.0454 23.0221 29.4865V29.4856ZM13.1452 29.924L15.8253 11.4945L8.62942 29.4847C8.40586 30.0437 8.81718 30.6524 9.41975 30.6524H12.3025C12.7251 30.6524 13.0841 30.3423 13.1452 29.9231V29.924ZM27.9168 0H3.73553C1.94878 0 0.5 1.44882 0.5 3.23562V27.4176C0.5 27.7407 0.548031 28.0534 0.637107 28.3477C0.835343 29.0035 1.69116 29.1651 2.11907 28.6306L15.8271 11.4954L29.535 28.6306C29.9629 29.1651 30.8188 29.0035 31.017 28.3477C31.1061 28.0534 31.1541 27.7416 31.1541 27.4176V3.23562C31.1541 1.44882 29.7053 0 27.9186 0H27.9168Z" fill="#66A0FF"/>
</svg>
