<svg width="31" height="32" viewBox="0 0 31 32" fill="none" xmlns="http://www.w3.org/2000/svg">
  <path d="M12.2708 28.9173H18.7291M12.9166 13.4173H18.0833M15.5 13.4173L15.5 21.1673M19.375 20.2972C22.4297 18.8461 24.5416 15.7325 24.5416 12.1257C24.5416 7.13208 20.4936 3.08398 15.5 3.08398C10.5064 3.08398 6.45831 7.13208 6.45831 12.1257C6.45831 15.7325 8.57026 18.8461 11.625 20.2972V21.1673C11.625 22.371 11.625 22.9728 11.8216 23.4476C12.0838 24.0806 12.5867 24.5835 13.2197 24.8457C13.6945 25.0423 14.2963 25.0423 15.5 25.0423C16.7037 25.0423 17.3055 25.0423 17.7802 24.8457C18.4132 24.5835 18.9161 24.0806 19.1783 23.4476C19.375 22.9728 19.375 22.371 19.375 21.1673V20.2972Z" stroke="currentColor" stroke-width="2.5" stroke-linecap="round" stroke-linejoin="round"/>
</svg>
