    <svg
      width="31"
      height="30"
      viewBox="0 0 31 30"
      fill="none"
      xmlns="http://www.w3.org/2000/svg"
    >
      <path
        d="M26.5834 26.25H6.08337C5.38331 26.25 5.03328 26.25 4.76589 26.1138C4.53068 25.9939 4.33946 25.8027 4.21962 25.5675C4.08337 25.3001 4.08337 24.9501 4.08337 24.25V3.75M26.5834 8.75L19.7905 15.5429C19.543 15.7904 19.4192 15.9142 19.2765 15.9605C19.151 16.0013 19.0158 16.0013 18.8902 15.9605C18.7475 15.9142 18.6238 15.7904 18.3763 15.5429L16.0405 13.2071C15.793 12.9596 15.6692 12.8358 15.5265 12.7895C15.401 12.7487 15.2658 12.7487 15.1402 12.7895C14.9975 12.8358 14.8738 12.9596 14.6263 13.2071L9.08337 18.75M26.5834 8.75H21.5834M26.5834 8.75V13.75"
        stroke="white"
        stroke-width="2"
        stroke-linecap="round"
        stroke-linejoin="round"
      />
    </svg>