<svg width="368" height="150" viewBox="0 0 368 150" fill="none" xmlns="http://www.w3.org/2000/svg">
<rect x="0.666016" y="0.5" width="366.667" height="149" rx="8" fill="#9797FF"/>
<path d="M344.161 134.3L342.139 134.029L341.868 132.006C341.837 131.775 341.504 131.775 341.473 132.006L341.201 134.029L339.179 134.3C338.948 134.331 338.948 134.664 339.179 134.695L341.201 134.966L341.473 136.989C341.504 137.22 341.837 137.22 341.868 136.989L342.139 134.966L344.161 134.695C344.393 134.664 344.393 134.331 344.161 134.3Z" fill="white"/>
<path d="M299.161 134.3L297.139 134.029L296.868 132.006C296.837 131.775 296.504 131.775 296.473 132.006L296.201 134.029L294.179 134.3C293.948 134.331 293.948 134.664 294.179 134.695L296.201 134.966L296.473 136.989C296.504 137.22 296.837 137.22 296.868 136.989L297.139 134.966L299.161 134.695C299.393 134.664 299.393 134.331 299.161 134.3Z" fill="white"/>
<path d="M254.161 134.3L252.139 134.029L251.868 132.006C251.837 131.775 251.504 131.775 251.473 132.006L251.201 134.029L249.179 134.3C248.948 134.331 248.948 134.664 249.179 134.695L251.201 134.966L251.473 136.989C251.504 137.22 251.837 137.22 251.868 136.989L252.139 134.966L254.161 134.695C254.393 134.664 254.393 134.331 254.161 134.3Z" fill="white"/>
<path d="M209.161 134.3L207.139 134.029L206.868 132.006C206.837 131.775 206.504 131.775 206.473 132.006L206.201 134.029L204.179 134.3C203.948 134.331 203.948 134.664 204.179 134.695L206.201 134.966L206.473 136.989C206.504 137.22 206.837 137.22 206.868 136.989L207.139 134.966L209.161 134.695C209.393 134.664 209.393 134.331 209.161 134.3Z" fill="white"/>
<path d="M164.161 134.3L162.139 134.029L161.868 132.006C161.837 131.775 161.504 131.775 161.473 132.006L161.201 134.029L159.179 134.3C158.948 134.331 158.948 134.664 159.179 134.695L161.201 134.966L161.473 136.989C161.504 137.22 161.837 137.22 161.868 136.989L162.139 134.966L164.161 134.695C164.393 134.664 164.393 134.331 164.161 134.3Z" fill="white"/>
<path d="M119.161 134.3L117.139 134.029L116.868 132.006C116.837 131.775 116.504 131.775 116.473 132.006L116.201 134.029L114.179 134.3C113.948 134.331 113.948 134.664 114.179 134.695L116.201 134.966L116.473 136.989C116.504 137.22 116.837 137.22 116.868 136.989L117.139 134.966L119.161 134.695C119.393 134.664 119.393 134.331 119.161 134.3Z" fill="white"/>
<path d="M74.1614 134.3L72.1392 134.029L71.8681 132.006C71.837 131.775 71.5036 131.775 71.4725 132.006L71.2014 134.029L69.1792 134.3C68.9481 134.331 68.9481 134.664 69.1792 134.695L71.2014 134.966L71.4725 136.989C71.5036 137.22 71.837 137.22 71.8681 136.989L72.1392 134.966L74.1614 134.695C74.3925 134.664 74.3925 134.331 74.1614 134.3Z" fill="white"/>
<path d="M29.1614 134.3L27.1392 134.029L26.8681 132.006C26.837 131.775 26.5036 131.775 26.4725 132.006L26.2014 134.029L24.1792 134.3C23.9481 134.331 23.9481 134.664 24.1792 134.695L26.2014 134.966L26.4725 136.989C26.5036 137.22 26.837 137.22 26.8681 136.989L27.1392 134.966L29.1614 134.695C29.3925 134.664 29.3925 134.331 29.1614 134.3Z" fill="white"/>
<path d="M344.161 16.2997L342.139 16.0286L341.868 14.0063C341.837 13.7752 341.504 13.7752 341.473 14.0063L341.201 16.0286L339.179 16.2997C338.948 16.3308 338.948 16.6641 339.179 16.6952L341.201 16.9663L341.473 18.9886C341.504 19.2197 341.837 19.2197 341.868 18.9886L342.139 16.9663L344.161 16.6952C344.393 16.6641 344.393 16.3308 344.161 16.2997Z" fill="white"/>
<path d="M299.161 16.2997L297.139 16.0286L296.868 14.0063C296.837 13.7752 296.504 13.7752 296.473 14.0063L296.201 16.0286L294.179 16.2997C293.948 16.3308 293.948 16.6641 294.179 16.6952L296.201 16.9663L296.473 18.9886C296.504 19.2197 296.837 19.2197 296.868 18.9886L297.139 16.9663L299.161 16.6952C299.393 16.6641 299.393 16.3308 299.161 16.2997Z" fill="white"/>
<path d="M254.161 16.2997L252.139 16.0286L251.868 14.0063C251.837 13.7752 251.504 13.7752 251.473 14.0063L251.201 16.0286L249.179 16.2997C248.948 16.3308 248.948 16.6641 249.179 16.6952L251.201 16.9663L251.473 18.9886C251.504 19.2197 251.837 19.2197 251.868 18.9886L252.139 16.9663L254.161 16.6952C254.393 16.6641 254.393 16.3308 254.161 16.2997Z" fill="white"/>
<path d="M209.161 16.2997L207.139 16.0286L206.868 14.0063C206.837 13.7752 206.504 13.7752 206.473 14.0063L206.201 16.0286L204.179 16.2997C203.948 16.3308 203.948 16.6641 204.179 16.6952L206.201 16.9663L206.473 18.9886C206.504 19.2197 206.837 19.2197 206.868 18.9886L207.139 16.9663L209.161 16.6952C209.393 16.6641 209.393 16.3308 209.161 16.2997Z" fill="white"/>
<path d="M164.161 16.2997L162.139 16.0286L161.868 14.0063C161.837 13.7752 161.504 13.7752 161.473 14.0063L161.201 16.0286L159.179 16.2997C158.948 16.3308 158.948 16.6641 159.179 16.6952L161.201 16.9663L161.473 18.9886C161.504 19.2197 161.837 19.2197 161.868 18.9886L162.139 16.9663L164.161 16.6952C164.393 16.6641 164.393 16.3308 164.161 16.2997Z" fill="white"/>
<path d="M119.161 16.2997L117.139 16.0286L116.868 14.0063C116.837 13.7752 116.504 13.7752 116.473 14.0063L116.201 16.0286L114.179 16.2997C113.948 16.3308 113.948 16.6641 114.179 16.6952L116.201 16.9663L116.473 18.9886C116.504 19.2197 116.837 19.2197 116.868 18.9886L117.139 16.9663L119.161 16.6952C119.393 16.6641 119.393 16.3308 119.161 16.2997Z" fill="white"/>
<path d="M74.1614 16.2997L72.1392 16.0286L71.8681 14.0063C71.837 13.7752 71.5036 13.7752 71.4725 14.0063L71.2014 16.0286L69.1792 16.2997C68.9481 16.3308 68.9481 16.6641 69.1792 16.6952L71.2014 16.9663L71.4725 18.9886C71.5036 19.2197 71.837 19.2197 71.8681 18.9886L72.1392 16.9663L74.1614 16.6952C74.3925 16.6641 74.3925 16.3308 74.1614 16.2997Z" fill="white"/>
<path d="M29.1614 16.2997L27.1392 16.0286L26.8681 14.0063C26.837 13.7752 26.5036 13.7752 26.4725 14.0063L26.2014 16.0286L24.1792 16.2997C23.9481 16.3308 23.9481 16.6641 24.1792 16.6952L26.2014 16.9663L26.4725 18.9886C26.5036 19.2197 26.837 19.2197 26.8681 18.9886L27.1392 16.9663L29.1614 16.6952C29.3925 16.6641 29.3925 16.3308 29.1614 16.2997Z" fill="white"/>
<path d="M100.147 47.8911C97.8014 47.8911 96.0959 48.4466 94.6469 49.7281L92.0881 51.9492C91.8748 52.1206 91.4482 52.2486 91.1503 51.9916C90.8515 51.7355 90.8092 51.3937 91.0648 51.052L92.4292 49.0012C92.6425 48.7018 92.4724 48.3177 92.0881 48.3177H88.8049C88.4215 48.3177 88.1227 48.6171 88.1227 49.0012V68.9961C88.1227 69.3803 88.4215 69.6797 88.8049 69.6797H92.2159C92.5993 69.6797 92.8981 69.3803 92.8981 68.9961V57.7172C92.8981 52.548 97.2047 51.7364 98.8247 51.7364C102.278 51.7364 103.515 54.2146 103.515 56.0939V68.9961C103.515 69.3803 103.814 69.6797 104.197 69.6797H107.608C107.991 69.6797 108.29 69.3803 108.29 68.9961V55.6665C108.29 50.8815 105.178 47.8911 100.147 47.8911Z" fill="white"/>
<path d="M122.189 47.8054C115.58 47.8054 111.359 51.8645 111.359 57.3754V60.4091C111.359 66.2194 115.58 70.1928 122.189 70.1928C128.03 70.1928 132.123 67.1591 132.55 63.0577C132.593 62.6302 132.294 62.3317 131.868 62.3317H128.542C128.244 62.3317 127.988 62.5031 127.902 62.8016C127.476 64.1687 125.472 66.2194 122.189 66.2194C118.906 66.2194 115.836 63.8269 115.878 60.4091L115.921 56.6071C115.964 53.7447 118.949 51.7797 122.189 51.7797C125.131 51.7797 127.988 53.4462 128.286 56.1805C128.31 56.4967 128.094 56.7819 127.783 56.842L118.223 58.701C117.839 58.7867 117.541 59.1285 117.541 59.5551V59.5975C117.541 59.9816 117.924 60.3234 118.478 60.3234H132.208C132.585 60.3234 132.89 60.017 132.89 59.6399V56.9488C132.89 51.8653 128.498 47.8063 122.188 47.8063L122.189 47.8054Z" fill="white"/>
<path d="M145.98 47.8054C140.65 47.8054 136.046 50.9239 136.046 55.0253C136.046 55.3671 136.345 55.6232 136.728 55.6232H140.181C140.522 55.6232 140.778 55.3671 140.821 55.0253C141.162 53.1459 143.422 51.7788 145.852 51.7788C148.751 51.7788 150.713 53.5734 150.713 56.6495V60.3667C150.713 64.1687 147.899 66.0914 144.402 66.0914C141.674 66.0914 140.096 65.066 140.096 63.3995C140.096 61.9467 140.864 60.7076 144.018 59.9816L148.58 58.7426C149.049 58.6145 149.22 58.2294 149.135 57.8029C149.092 57.4611 148.709 57.2897 148.367 57.2897H143.635C139.627 57.2897 135.576 59.8527 135.576 63.6123V64.2102C135.576 68.0555 139.2 70.063 143.336 70.063C145.979 70.063 148.239 69.0376 149.646 67.8418L151.736 66.0472C152.077 65.7478 152.418 65.7478 152.716 66.0472C152.971 66.3033 152.886 66.6884 152.673 66.9869L151.394 68.9952C151.18 69.2946 151.351 69.6788 151.735 69.6788H154.805C155.188 69.6788 155.487 69.3794 155.487 68.9952V56.0498C155.487 51.0943 151.948 47.8045 145.978 47.8045L145.98 47.8054Z" fill="white"/>
<path d="M173.907 48.3186H169.131C167.469 48.3186 165.848 49.3439 164.697 50.3269L162.821 51.9501C162.608 52.1215 162.224 52.2495 161.968 52.0358C161.669 51.8221 161.541 51.3946 161.798 51.0528L163.162 49.0021C163.376 48.7027 163.205 48.3186 162.821 48.3186H159.623C159.24 48.3186 158.941 48.6179 158.941 49.0021V68.997C158.941 69.3812 159.24 69.6806 159.623 69.6806H163.12C163.503 69.6806 163.802 69.3812 163.802 68.997V58.7434C163.802 54.3426 165.593 52.3776 169.473 52.3776H173.908C174.291 52.3776 174.59 52.0782 174.59 51.694V49.0021C174.59 48.6179 174.29 48.3186 173.907 48.3186Z" fill="white"/>
<path d="M75.3079 43.5C74.162 43.5 73.0982 44.0953 72.4979 45.0738L66.031 54.6941C65.8204 55.0112 65.9059 55.4386 66.2223 55.6497C66.4788 55.821 66.8181 55.7998 67.0517 55.5985L73.4172 50.0663C73.523 49.971 73.6861 49.9807 73.7813 50.0867C73.8245 50.1352 73.8474 50.1979 73.8474 50.2624V67.583C73.8474 67.7261 73.7319 67.8409 73.5891 67.8409C73.5124 67.8409 73.4402 67.8074 73.3917 67.7482L54.1497 44.6693C53.5239 43.9275 52.6037 43.5 51.6341 43.5H50.9616C49.1415 43.5 47.666 44.9784 47.666 46.8022V71.197C47.666 73.0207 49.1415 74.4991 50.9616 74.4991C52.1074 74.4991 53.1713 73.9039 53.7715 72.9253L60.2384 63.305C60.4491 62.9879 60.3636 62.5605 60.0472 62.3494C59.7907 62.1781 59.4513 62.1993 59.2178 62.4006L52.8522 67.9328C52.7465 68.0282 52.5834 68.0184 52.4882 67.9125C52.445 67.8639 52.4221 67.8012 52.423 67.7367V50.4125C52.423 50.2695 52.5384 50.1547 52.6812 50.1547C52.757 50.1547 52.8302 50.1882 52.8787 50.2474L72.1181 73.3307C72.7447 74.0717 73.6649 74.4991 74.6336 74.5H75.3061C77.1262 74.5009 78.6026 73.0233 78.6043 71.1996V46.8022C78.6035 44.9784 77.128 43.5 75.3079 43.5Z" fill="white"/>
<path d="M186.875 48.2691V57.7472H198.357V48.2691H201.094V69.73H198.357V60.1618H186.875V69.73H184.153V48.2691H186.875Z" fill="white"/>
<path d="M215.952 47.8522C222.303 47.8522 226.632 51.8759 226.632 58.9996C226.632 66.1232 222.303 70.1469 215.952 70.1469C209.602 70.1469 205.273 66.1232 205.273 58.9996C205.273 51.8759 209.602 47.8522 215.952 47.8522ZM215.952 67.7924C220.727 67.7924 223.85 64.6032 223.85 58.9996C223.85 53.3959 220.726 50.2068 215.952 50.2068C211.179 50.2068 208.055 53.3959 208.055 58.9996C208.055 64.6032 211.179 67.7924 215.952 67.7924Z" fill="white"/>
<path d="M247.351 54.2755C247.351 58.1208 244.54 60.2819 241.074 60.2819H237.386L247.202 69.2831V69.73H244.123L233.816 60.2219H233.518V69.73H230.826V48.2691H240.836C244.451 48.2691 247.351 50.4311 247.351 54.2755ZM240.449 58.0758C242.933 58.0758 244.703 56.7793 244.703 54.3347C244.703 51.8901 242.933 50.5795 240.449 50.5795H233.518V58.0758H240.449Z" fill="white"/>
<path d="M254.103 48.2691V69.73H251.367V48.2691H254.103Z" fill="white"/>
<path d="M274.569 48.2691V50.2509L261.807 67.4197H274.881V69.73H258.297V67.7482L271.058 50.5795H258.758V48.2691H274.569Z" fill="white"/>
<path d="M287.688 47.8522C294.038 47.8522 298.367 51.8759 298.367 58.9996C298.367 66.1232 294.038 70.1469 287.688 70.1469C281.337 70.1469 277.008 66.1232 277.008 58.9996C277.008 51.8759 281.337 47.8522 287.688 47.8522ZM287.688 67.7924C292.462 67.7924 295.585 64.6032 295.585 58.9996C295.585 53.3959 292.461 50.2068 287.688 50.2068C282.914 50.2068 279.79 53.3959 279.79 58.9996C279.79 64.6032 282.914 67.7924 287.688 67.7924Z" fill="white"/>
<path d="M305.833 48.2691L316.795 65.7505H317.033V48.2691H319.666V69.73H316.379L305.432 52.2486H305.194V69.73H302.561V48.2691H305.833Z" fill="white"/>
<path d="M107.528 97.86C107.528 92.232 110.924 88.884 116.528 88.884C122.132 88.884 125.528 92.232 125.528 97.86C125.528 103.488 122.132 106.836 116.528 106.836C110.924 106.836 107.528 103.488 107.528 97.86ZM111.284 97.86C111.284 101.592 113.216 103.764 116.528 103.764C119.84 103.764 121.784 101.592 121.784 97.86C121.784 94.128 119.84 91.956 116.528 91.956C113.216 91.956 111.284 94.128 111.284 97.86ZM126.786 96.6V93.936H129.498V92.652C129.498 90.42 130.902 89.22 133.17 89.22H136.35V91.8H133.218L133.026 91.992V93.936H136.266V96.6H133.026V106.5H129.498V96.6H126.786ZM138.105 96.6V93.936H140.817V92.652C140.817 90.42 142.221 89.22 144.489 89.22H147.669V91.8H144.537L144.345 91.992V93.936H147.585V96.6H144.345V106.5H140.817V96.6H138.105ZM150.144 93.936H153.684V106.5H150.144V93.936ZM150.096 92.316V89.436H153.732V92.316H150.096ZM155.872 100.224C155.872 95.844 158.632 93.648 162.532 93.648C166.36 93.648 168.448 95.844 168.58 98.232V98.592H165.328C165.22 97.536 164.524 96.372 162.628 96.372C160.66 96.372 159.412 97.764 159.412 100.224C159.412 102.684 160.66 104.076 162.628 104.076C164.56 104.076 165.256 102.864 165.364 101.736H168.64V102.096C168.46 104.592 166.408 106.788 162.532 106.788C158.632 106.788 155.872 104.592 155.872 100.224ZM170.099 100.212C170.099 95.832 172.679 93.648 176.555 93.648C180.383 93.648 182.687 95.892 182.687 99.756V101.184H173.471C173.519 102.888 174.623 104.184 176.531 104.184C178.415 104.184 179.183 103.236 179.375 102.468H182.447V102.828C182.051 104.556 180.491 106.788 176.591 106.788C172.691 106.788 170.099 104.592 170.099 100.212ZM173.507 98.784H179.387C179.363 97.368 178.439 96.216 176.507 96.216C174.635 96.216 173.651 97.404 173.507 98.784ZM191.047 89.22H194.719V96.24H202.267V89.22H205.939V106.5H202.267V99.396H194.719V106.5H191.047V89.22ZM208.302 100.224C208.302 95.88 211.158 93.648 215.118 93.648C219.078 93.648 221.934 95.88 221.934 100.224C221.934 104.556 219.078 106.788 215.118 106.788C211.158 106.788 208.302 104.556 208.302 100.224ZM211.878 100.224C211.878 102.732 213.138 104.088 215.118 104.088C217.098 104.088 218.358 102.732 218.358 100.224C218.358 97.716 217.098 96.348 215.118 96.348C213.138 96.348 211.878 97.716 211.878 100.224ZM236.149 106.5H232.729V105.324H232.537C231.709 106.32 230.437 106.752 228.817 106.752C225.817 106.752 224.017 105.18 224.017 102.072V93.936H227.545V101.784C227.545 103.236 228.313 103.98 229.777 103.98C231.373 103.98 232.609 103.128 232.609 100.968V93.936H236.149V106.5ZM238.949 93.936H242.333V95.34H242.525C242.981 94.392 243.857 93.888 245.405 93.888H247.157V96.768H245.393C243.449 96.768 242.489 97.728 242.489 99.948V106.5H238.949V93.936ZM248.417 97.44C248.417 95.148 250.337 93.672 253.949 93.672C257.573 93.672 259.589 95.148 259.781 97.476V97.836H256.589C256.493 96.564 255.449 96.168 253.973 96.168C252.497 96.168 251.741 96.588 251.741 97.344C251.741 98.1 252.341 98.388 253.217 98.52L255.713 98.88C258.257 99.24 259.961 100.344 259.961 102.684C259.961 105.036 258.173 106.764 254.297 106.764C250.409 106.764 248.309 105.036 248.201 102.852V102.492H251.465C251.549 103.74 252.773 104.256 254.297 104.256C255.833 104.256 256.613 103.728 256.613 102.888C256.613 102.084 256.001 101.724 254.921 101.568L252.425 101.208C250.013 100.86 248.417 99.72 248.417 97.44Z" fill="white"/>
</svg>
