<svg width="367" height="149" viewBox="0 0 367 149" fill="none" xmlns="http://www.w3.org/2000/svg">
<rect width="366.667" height="149" rx="8" fill="#FF7966"/>
<path d="M343.495 133.8L341.473 133.529L341.202 131.506C341.171 131.275 340.838 131.275 340.807 131.506L340.535 133.529L338.513 133.8C338.282 133.831 338.282 134.164 338.513 134.195L340.535 134.466L340.807 136.489C340.838 136.72 341.171 136.72 341.202 136.489L341.473 134.466L343.495 134.195C343.727 134.164 343.727 133.831 343.495 133.8Z" fill="white"/>
<path d="M298.495 133.8L296.473 133.529L296.202 131.506C296.171 131.275 295.838 131.275 295.807 131.506L295.535 133.529L293.513 133.8C293.282 133.831 293.282 134.164 293.513 134.195L295.535 134.466L295.807 136.489C295.838 136.72 296.171 136.72 296.202 136.489L296.473 134.466L298.495 134.195C298.727 134.164 298.727 133.831 298.495 133.8Z" fill="white"/>
<path d="M253.495 133.8L251.473 133.529L251.202 131.506C251.171 131.275 250.838 131.275 250.807 131.506L250.535 133.529L248.513 133.8C248.282 133.831 248.282 134.164 248.513 134.195L250.535 134.466L250.807 136.489C250.838 136.72 251.171 136.72 251.202 136.489L251.473 134.466L253.495 134.195C253.727 134.164 253.727 133.831 253.495 133.8Z" fill="white"/>
<path d="M208.495 133.8L206.473 133.529L206.202 131.506C206.171 131.275 205.838 131.275 205.807 131.506L205.535 133.529L203.513 133.8C203.282 133.831 203.282 134.164 203.513 134.195L205.535 134.466L205.807 136.489C205.838 136.72 206.171 136.72 206.202 136.489L206.473 134.466L208.495 134.195C208.727 134.164 208.727 133.831 208.495 133.8Z" fill="white"/>
<path d="M163.495 133.8L161.473 133.529L161.202 131.506C161.171 131.275 160.838 131.275 160.807 131.506L160.535 133.529L158.513 133.8C158.282 133.831 158.282 134.164 158.513 134.195L160.535 134.466L160.807 136.489C160.838 136.72 161.171 136.72 161.202 136.489L161.473 134.466L163.495 134.195C163.727 134.164 163.727 133.831 163.495 133.8Z" fill="white"/>
<path d="M118.495 133.8L116.473 133.529L116.202 131.506C116.171 131.275 115.838 131.275 115.807 131.506L115.535 133.529L113.513 133.8C113.282 133.831 113.282 134.164 113.513 134.195L115.535 134.466L115.807 136.489C115.838 136.72 116.171 136.72 116.202 136.489L116.473 134.466L118.495 134.195C118.727 134.164 118.727 133.831 118.495 133.8Z" fill="white"/>
<path d="M73.4954 133.8L71.4732 133.529L71.2021 131.506C71.171 131.275 70.8376 131.275 70.8065 131.506L70.5354 133.529L68.5132 133.8C68.2821 133.831 68.2821 134.164 68.5132 134.195L70.5354 134.466L70.8065 136.489C70.8376 136.72 71.171 136.72 71.2021 136.489L71.4732 134.466L73.4954 134.195C73.7265 134.164 73.7265 133.831 73.4954 133.8Z" fill="white"/>
<path d="M28.4954 133.8L26.4732 133.529L26.2021 131.506C26.171 131.275 25.8376 131.275 25.8065 131.506L25.5354 133.529L23.5132 133.8C23.2821 133.831 23.2821 134.164 23.5132 134.195L25.5354 134.466L25.8065 136.489C25.8376 136.72 26.171 136.72 26.2021 136.489L26.4732 134.466L28.4954 134.195C28.7265 134.164 28.7265 133.831 28.4954 133.8Z" fill="white"/>
<path d="M343.495 15.7997L341.473 15.5286L341.202 13.5063C341.171 13.2752 340.838 13.2752 340.807 13.5063L340.535 15.5286L338.513 15.7997C338.282 15.8308 338.282 16.1641 338.513 16.1952L340.535 16.4663L340.807 18.4886C340.838 18.7197 341.171 18.7197 341.202 18.4886L341.473 16.4663L343.495 16.1952C343.727 16.1641 343.727 15.8308 343.495 15.7997Z" fill="white"/>
<path d="M298.495 15.7997L296.473 15.5286L296.202 13.5063C296.171 13.2752 295.838 13.2752 295.807 13.5063L295.535 15.5286L293.513 15.7997C293.282 15.8308 293.282 16.1641 293.513 16.1952L295.535 16.4663L295.807 18.4886C295.838 18.7197 296.171 18.7197 296.202 18.4886L296.473 16.4663L298.495 16.1952C298.727 16.1641 298.727 15.8308 298.495 15.7997Z" fill="white"/>
<path d="M253.495 15.7997L251.473 15.5286L251.202 13.5063C251.171 13.2752 250.838 13.2752 250.807 13.5063L250.535 15.5286L248.513 15.7997C248.282 15.8308 248.282 16.1641 248.513 16.1952L250.535 16.4663L250.807 18.4886C250.838 18.7197 251.171 18.7197 251.202 18.4886L251.473 16.4663L253.495 16.1952C253.727 16.1641 253.727 15.8308 253.495 15.7997Z" fill="white"/>
<path d="M208.495 15.7997L206.473 15.5286L206.202 13.5063C206.171 13.2752 205.838 13.2752 205.807 13.5063L205.535 15.5286L203.513 15.7997C203.282 15.8308 203.282 16.1641 203.513 16.1952L205.535 16.4663L205.807 18.4886C205.838 18.7197 206.171 18.7197 206.202 18.4886L206.473 16.4663L208.495 16.1952C208.727 16.1641 208.727 15.8308 208.495 15.7997Z" fill="white"/>
<path d="M163.495 15.7997L161.473 15.5286L161.202 13.5063C161.171 13.2752 160.838 13.2752 160.807 13.5063L160.535 15.5286L158.513 15.7997C158.282 15.8308 158.282 16.1641 158.513 16.1952L160.535 16.4663L160.807 18.4886C160.838 18.7197 161.171 18.7197 161.202 18.4886L161.473 16.4663L163.495 16.1952C163.727 16.1641 163.727 15.8308 163.495 15.7997Z" fill="white"/>
<path d="M118.495 15.7997L116.473 15.5286L116.202 13.5063C116.171 13.2752 115.838 13.2752 115.807 13.5063L115.535 15.5286L113.513 15.7997C113.282 15.8308 113.282 16.1641 113.513 16.1952L115.535 16.4663L115.807 18.4886C115.838 18.7197 116.171 18.7197 116.202 18.4886L116.473 16.4663L118.495 16.1952C118.727 16.1641 118.727 15.8308 118.495 15.7997Z" fill="white"/>
<path d="M73.4954 15.7997L71.4732 15.5286L71.2021 13.5063C71.171 13.2752 70.8376 13.2752 70.8065 13.5063L70.5354 15.5286L68.5132 15.7997C68.2821 15.8308 68.2821 16.1641 68.5132 16.1952L70.5354 16.4663L70.8065 18.4886C70.8376 18.7197 71.171 18.7197 71.2021 18.4886L71.4732 16.4663L73.4954 16.1952C73.7265 16.1641 73.7265 15.8308 73.4954 15.7997Z" fill="white"/>
<path d="M28.4954 15.7997L26.4732 15.5286L26.2021 13.5063C26.171 13.2752 25.8376 13.2752 25.8065 13.5063L25.5354 15.5286L23.5132 15.7997C23.2821 15.8308 23.2821 16.1641 23.5132 16.1952L25.5354 16.4663L25.8065 18.4886C25.8376 18.7197 26.171 18.7197 26.2021 18.4886L26.4732 16.4663L28.4954 16.1952C28.7265 16.1641 28.7265 15.8308 28.4954 15.7997Z" fill="white"/>
<path d="M99.4808 47.3911C97.1354 47.3911 95.4299 47.9466 93.9808 49.2281L91.4221 51.4492C91.2088 51.6206 90.7822 51.7486 90.4843 51.4916C90.1855 51.2355 90.1432 50.8937 90.3988 50.552L91.7632 48.5012C91.9765 48.2018 91.8064 47.8177 91.4221 47.8177H88.1389C87.7555 47.8177 87.4567 48.1171 87.4567 48.5012V68.4961C87.4567 68.8803 87.7555 69.1797 88.1389 69.1797H91.5499C91.9333 69.1797 92.2321 68.8803 92.2321 68.4961V57.2172C92.2321 52.048 96.5387 51.2364 98.1587 51.2364C101.612 51.2364 102.849 53.7146 102.849 55.5939V68.4961C102.849 68.8803 103.147 69.1797 103.531 69.1797H106.942C107.325 69.1797 107.624 68.8803 107.624 68.4961V55.1665C107.624 50.3815 104.512 47.3911 99.4808 47.3911Z" fill="white"/>
<path d="M121.523 47.3054C114.914 47.3054 110.693 51.3645 110.693 56.8754V59.9091C110.693 65.7194 114.914 69.6928 121.523 69.6928C127.364 69.6928 131.457 66.6591 131.884 62.5577C131.927 62.1302 131.628 61.8317 131.202 61.8317H127.876C127.577 61.8317 127.322 62.0031 127.236 62.3016C126.81 63.6687 124.806 65.7194 121.523 65.7194C118.24 65.7194 115.17 63.3269 115.212 59.9091L115.255 56.1071C115.298 53.2447 118.283 51.2797 121.523 51.2797C124.465 51.2797 127.322 52.9462 127.62 55.6805C127.644 55.9967 127.428 56.2819 127.117 56.342L117.557 58.201C117.173 58.2867 116.875 58.6285 116.875 59.0551V59.0975C116.875 59.4816 117.258 59.8234 117.812 59.8234H131.542C131.919 59.8234 132.224 59.517 132.224 59.1399V56.4488C132.224 51.3653 127.832 47.3063 121.522 47.3063L121.523 47.3054Z" fill="white"/>
<path d="M145.314 47.3054C139.984 47.3054 135.38 50.4239 135.38 54.5253C135.38 54.8671 135.679 55.1232 136.062 55.1232H139.515C139.856 55.1232 140.112 54.8671 140.155 54.5253C140.496 52.6459 142.756 51.2788 145.186 51.2788C148.085 51.2788 150.047 53.0734 150.047 56.1495V59.8667C150.047 63.6687 147.233 65.5914 143.736 65.5914C141.008 65.5914 139.43 64.566 139.43 62.8995C139.43 61.4467 140.198 60.2076 143.352 59.4816L147.914 58.2426C148.383 58.1145 148.554 57.7294 148.469 57.3029C148.426 56.9611 148.043 56.7897 147.701 56.7897H142.969C138.961 56.7897 134.91 59.3527 134.91 63.1123V63.7102C134.91 67.5555 138.534 69.563 142.67 69.563C145.313 69.563 147.573 68.5376 148.98 67.3418L151.07 65.5472C151.411 65.2478 151.752 65.2478 152.05 65.5472C152.305 65.8033 152.22 66.1884 152.007 66.4869L150.728 68.4952C150.514 68.7946 150.685 69.1788 151.069 69.1788H154.139C154.522 69.1788 154.821 68.8794 154.821 68.4952V55.5498C154.821 50.5943 151.282 47.3045 145.312 47.3045L145.314 47.3054Z" fill="white"/>
<path d="M173.241 47.8186H168.465C166.803 47.8186 165.182 48.8439 164.031 49.8269L162.155 51.4501C161.942 51.6215 161.558 51.7495 161.302 51.5358C161.003 51.3221 160.875 50.8946 161.132 50.5528L162.496 48.5021C162.71 48.2027 162.539 47.8186 162.155 47.8186H158.957C158.574 47.8186 158.275 48.1179 158.275 48.5021V68.497C158.275 68.8812 158.574 69.1806 158.957 69.1806H162.454C162.837 69.1806 163.136 68.8812 163.136 68.497V58.2434C163.136 53.8426 164.927 51.8776 168.807 51.8776H173.242C173.625 51.8776 173.924 51.5782 173.924 51.194V48.5021C173.924 48.1179 173.624 47.8186 173.241 47.8186Z" fill="white"/>
<path d="M74.6419 43C73.496 43 72.4322 43.5953 71.8319 44.5738L65.365 54.1941C65.1544 54.5112 65.2399 54.9386 65.5563 55.1497C65.8128 55.321 66.1521 55.2998 66.3857 55.0985L72.7512 49.5663C72.857 49.471 73.0201 49.4807 73.1153 49.5867C73.1584 49.6352 73.1814 49.6979 73.1814 49.7624V67.083C73.1814 67.2261 73.0659 67.3409 72.9231 67.3409C72.8464 67.3409 72.7741 67.3074 72.7257 67.2482L53.4836 44.1693C52.8578 43.4275 51.9377 43 50.9681 43H50.2956C48.4755 43 47 44.4784 47 46.3022V70.697C47 72.5207 48.4755 73.9991 50.2956 73.9991C51.4414 73.9991 52.5053 73.4039 53.1055 72.4253L59.5724 62.805C59.7831 62.4879 59.6976 62.0605 59.3811 61.8494C59.1247 61.6781 58.7853 61.6993 58.5517 61.9006L52.1862 67.4328C52.0804 67.5282 51.9174 67.5184 51.8222 67.4125C51.779 67.3639 51.7561 67.3012 51.757 67.2367V49.9125C51.757 49.7695 51.8724 49.6547 52.0152 49.6547C52.091 49.6547 52.1642 49.6882 52.2126 49.7474L71.452 72.8307C72.0787 73.5717 72.9989 73.9991 73.9676 74H74.6401C76.4602 74.0009 77.9366 72.5233 77.9383 70.6996V46.3022C77.9374 44.4784 76.462 43 74.6419 43Z" fill="white"/>
<path d="M186.209 47.7691V57.2472H197.691V47.7691H200.428V69.23H197.691V59.6618H186.209V69.23H183.487V47.7691H186.209Z" fill="white"/>
<path d="M215.286 47.3522C221.637 47.3522 225.966 51.3759 225.966 58.4996C225.966 65.6232 221.637 69.6469 215.286 69.6469C208.936 69.6469 204.607 65.6232 204.607 58.4996C204.607 51.3759 208.936 47.3522 215.286 47.3522ZM215.286 67.2924C220.061 67.2924 223.184 64.1032 223.184 58.4996C223.184 52.8959 220.06 49.7068 215.286 49.7068C210.513 49.7068 207.389 52.8959 207.389 58.4996C207.389 64.1032 210.513 67.2924 215.286 67.2924Z" fill="white"/>
<path d="M246.685 53.7755C246.685 57.6208 243.874 59.7819 240.408 59.7819H236.72L246.536 68.7831V69.23H243.457L233.15 59.7219H232.852V69.23H230.16V47.7691H240.17C243.785 47.7691 246.685 49.9311 246.685 53.7755ZM239.783 57.5758C242.267 57.5758 244.037 56.2793 244.037 53.8347C244.037 51.3901 242.267 50.0795 239.783 50.0795H232.852V57.5758H239.783Z" fill="white"/>
<path d="M253.437 47.7691V69.23H250.701V47.7691H253.437Z" fill="white"/>
<path d="M273.903 47.7691V49.7509L261.141 66.9197H274.215V69.23H257.631V67.2482L270.392 50.0795H258.092V47.7691H273.903Z" fill="white"/>
<path d="M287.022 47.3522C293.372 47.3522 297.701 51.3759 297.701 58.4996C297.701 65.6232 293.372 69.6469 287.022 69.6469C280.671 69.6469 276.342 65.6232 276.342 58.4996C276.342 51.3759 280.671 47.3522 287.022 47.3522ZM287.022 67.2924C291.796 67.2924 294.919 64.1032 294.919 58.4996C294.919 52.8959 291.795 49.7068 287.022 49.7068C282.248 49.7068 279.124 52.8959 279.124 58.4996C279.124 64.1032 282.248 67.2924 287.022 67.2924Z" fill="white"/>
<path d="M305.167 47.7691L316.129 65.2505H316.367V47.7691H319V69.23H315.713L304.766 51.7486H304.528V69.23H301.895V47.7691H305.167Z" fill="white"/>
<path d="M80.9186 88.72C84.1706 88.72 86.7386 90.64 86.7386 94.06C86.7386 97.468 84.1706 99.436 80.9186 99.436H76.6226V106H72.9626V88.72H80.9186ZM76.6226 96.448H80.3066C81.9986 96.448 83.1266 95.632 83.1266 94.072C83.1266 92.524 81.9986 91.708 80.3066 91.708H76.6226V96.448ZM88.7087 93.436H92.0927V94.84H92.2847C92.7407 93.892 93.6167 93.388 95.1647 93.388H96.9167V96.268H95.1527C93.2087 96.268 92.2487 97.228 92.2487 99.448V106H88.7087V93.436ZM97.7409 99.724C97.7409 95.38 100.597 93.148 104.557 93.148C108.517 93.148 111.373 95.38 111.373 99.724C111.373 104.056 108.517 106.288 104.557 106.288C100.597 106.288 97.7409 104.056 97.7409 99.724ZM101.317 99.724C101.317 102.232 102.577 103.588 104.557 103.588C106.537 103.588 107.797 102.232 107.797 99.724C107.797 97.216 106.537 95.848 104.557 95.848C102.577 95.848 101.317 97.216 101.317 99.724ZM126.092 88.72V106H122.66V104.788H122.468C121.556 105.856 120.224 106.252 118.652 106.252C115.52 106.252 112.928 104.176 112.928 99.724C112.928 95.272 115.52 93.184 118.652 93.184C120.176 93.184 121.472 93.568 122.372 94.564H122.552V88.72H126.092ZM116.504 99.724C116.504 102.196 117.728 103.528 119.6 103.528C121.484 103.528 122.708 102.196 122.708 99.724C122.708 97.252 121.484 95.908 119.6 95.908C117.728 95.908 116.504 97.252 116.504 99.724ZM140.94 106H137.52V104.824H137.328C136.5 105.82 135.228 106.252 133.608 106.252C130.608 106.252 128.808 104.68 128.808 101.572V93.436H132.336V101.284C132.336 102.736 133.104 103.48 134.568 103.48C136.164 103.48 137.4 102.628 137.4 100.468V93.436H140.94V106ZM143.116 99.724C143.116 95.344 145.876 93.148 149.776 93.148C153.604 93.148 155.692 95.344 155.824 97.732V98.092H152.572C152.464 97.036 151.768 95.872 149.872 95.872C147.904 95.872 146.656 97.264 146.656 99.724C146.656 102.184 147.904 103.576 149.872 103.576C151.804 103.576 152.5 102.364 152.608 101.236H155.884V101.596C155.704 104.092 153.652 106.288 149.776 106.288C145.876 106.288 143.116 104.092 143.116 99.724ZM156.913 93.436H159.553V90.244H163.093V93.436H166.453V96.1H163.093V102.952L163.285 103.144H166.357V106H163.237C160.957 106 159.553 104.8 159.553 102.568V96.1H156.913V93.436ZM181.558 88.72C187.006 88.72 190.498 92.02 190.498 97.36C190.498 102.7 187.006 106 181.558 106H174.658V88.72H181.558ZM178.33 102.928H181.414C184.582 102.928 186.79 101.068 186.79 97.36C186.79 93.652 184.582 91.792 181.414 91.792H178.33V102.928ZM192.077 99.712C192.077 95.332 194.657 93.148 198.533 93.148C202.361 93.148 204.665 95.392 204.665 99.256V100.684H195.449C195.497 102.388 196.601 103.684 198.509 103.684C200.393 103.684 201.161 102.736 201.353 101.968H204.425V102.328C204.029 104.056 202.469 106.288 198.569 106.288C194.669 106.288 192.077 104.092 192.077 99.712ZM195.485 98.284H201.365C201.341 96.868 200.417 95.716 198.485 95.716C196.613 95.716 195.629 96.904 195.485 98.284ZM206.857 93.436H210.181V94.624H210.373C210.865 93.952 211.873 93.184 213.949 93.184C216.097 93.184 217.021 94.168 217.429 94.936H217.621C218.257 94.036 219.241 93.184 221.677 93.184C224.401 93.184 226.021 94.828 226.021 97.468V106H222.553V97.804C222.553 96.604 221.893 95.944 220.621 95.944C219.253 95.944 218.185 96.628 218.185 98.524V106H214.705V97.804C214.705 96.604 214.057 95.944 212.773 95.944C211.417 95.944 210.337 96.628 210.337 98.524V106H206.857V93.436ZM228.1 99.724C228.1 95.38 230.956 93.148 234.916 93.148C238.876 93.148 241.732 95.38 241.732 99.724C241.732 104.056 238.876 106.288 234.916 106.288C230.956 106.288 228.1 104.056 228.1 99.724ZM231.676 99.724C231.676 102.232 232.936 103.588 234.916 103.588C236.896 103.588 238.156 102.232 238.156 99.724C238.156 97.216 236.896 95.848 234.916 95.848C232.936 95.848 231.676 97.216 231.676 99.724ZM256.98 88.72C262.428 88.72 265.92 92.02 265.92 97.36C265.92 102.7 262.428 106 256.98 106H250.08V88.72H256.98ZM253.752 102.928H256.836C260.004 102.928 262.212 101.068 262.212 97.36C262.212 93.652 260.004 91.792 256.836 91.792H253.752V102.928ZM268.1 97.048C268.352 94.696 270.44 93.148 273.92 93.148C277.388 93.148 279.524 94.696 279.524 98.128V106H276.26V104.704H276.068C275.636 105.424 274.58 106.216 272.216 106.216C269.36 106.216 267.428 104.788 267.428 102.364C267.428 99.832 269.408 98.692 271.892 98.392L276.14 97.864V97.636C276.14 96.268 275.396 95.668 273.872 95.668C272.348 95.668 271.484 96.268 271.376 97.408H268.1V97.048ZM270.944 102.16C270.944 103.06 271.7 103.636 272.996 103.636C274.82 103.636 276.14 102.688 276.14 100.744V100.228L272.696 100.684C271.664 100.828 270.944 101.272 270.944 102.16ZM280.753 93.436H284.425L287.485 102.064H287.677L290.749 93.436H294.337V93.796L287.437 110.8H283.873V110.44L285.721 106.06L280.753 93.796V93.436Z" fill="white"/>
</svg>
