    <svg
      width="31"
      height="30"
      viewBox="0 0 31 30"
      fill="none"
      xmlns="http://www.w3.org/2000/svg"
    >
      <path
        d="M15.6667 18.7503L11.9167 15.0003M15.6667 18.7503C17.4127 18.0862 19.0878 17.2487 20.6667 16.2503M15.6667 18.7503V25.0003C15.6667 25.0003 19.4542 24.3128 20.6667 22.5003C22.0167 20.4753 20.6667 16.2503 20.6667 16.2503M11.9167 15.0003C12.5819 13.2746 13.4194 11.6204 14.4167 10.0628C15.8732 7.73404 17.9012 5.81662 20.3079 4.49292C22.7147 3.16923 25.42 2.48327 28.1667 2.50031C28.1667 5.90031 27.1917 11.8753 20.6667 16.2503M11.9167 15.0003H5.66669C5.66669 15.0003 6.35419 11.2128 8.16669 10.0003C10.1917 8.65031 14.4167 10.0003 14.4167 10.0003M6.29169 20.6253C4.41669 22.2003 3.79169 26.8753 3.79169 26.8753C3.79169 26.8753 8.46669 26.2503 10.0417 24.3753C10.9292 23.3253 10.9167 21.7128 9.92919 20.7378C9.44332 20.2741 8.8033 20.0061 8.13197 19.9853C7.46064 19.9646 6.80528 20.1925 6.29169 20.6253Z"
        stroke="white"
        stroke-width="2"
        stroke-linecap="round"
        stroke-linejoin="round"
      />
    </svg>