  <svg
    width="46"
    height="17"
    viewBox="0 0 46 17"
    fill="none"
    xmlns="http://www.w3.org/2000/svg"
  >
    <rect width="46" height="17" rx="6" fill="#62EBE4" />
    <path
      d="M14.1535 6.45455C14.1023 6.02273 13.8949 5.6875 13.5313 5.44886C13.1677 5.21023 12.7216 5.09091 12.1932 5.09091C11.8069 5.09091 11.4688 5.15341 11.179 5.27841C10.8921 5.40341 10.6677 5.57528 10.5057 5.79403C10.3466 6.01278 10.2671 6.26136 10.2671 6.53977C10.2671 6.77273 10.3225 6.97301 10.4333 7.14062C10.5469 7.3054 10.6918 7.44318 10.8679 7.55398C11.0441 7.66193 11.2287 7.75142 11.4219 7.82244C11.6151 7.89062 11.7927 7.94602 11.9546 7.98864L12.841 8.22727C13.0682 8.28693 13.3211 8.36932 13.5995 8.47443C13.8807 8.57955 14.1492 8.72301 14.4049 8.90483C14.6634 9.08381 14.8765 9.31392 15.0441 9.59517C15.2117 9.87642 15.2955 10.2216 15.2955 10.6307C15.2955 11.1023 15.1719 11.5284 14.9248 11.9091C14.6804 12.2898 14.3225 12.5923 13.8509 12.8168C13.3821 13.0412 12.8125 13.1534 12.1421 13.1534C11.5171 13.1534 10.9759 13.0526 10.5185 12.8509C10.064 12.6491 9.70601 12.3679 9.44464 12.0071C9.18612 11.6463 9.03982 11.2273 9.00572 10.75H10.0966C10.125 11.0795 10.2358 11.3523 10.429 11.5682C10.625 11.7812 10.8722 11.9403 11.1705 12.0455C11.4716 12.1477 11.7955 12.1989 12.1421 12.1989C12.5455 12.1989 12.9077 12.1335 13.2287 12.0028C13.5498 11.8693 13.804 11.6847 13.9915 11.4489C14.179 11.2102 14.2728 10.9318 14.2728 10.6136C14.2728 10.3239 14.1918 10.0881 14.0299 9.90625C13.8679 9.72443 13.6549 9.5767 13.3907 9.46307C13.1265 9.34943 12.841 9.25 12.5341 9.16477L11.4603 8.85795C10.7785 8.66193 10.2387 8.3821 9.84095 8.01847C9.44322 7.65483 9.24436 7.17898 9.24436 6.59091C9.24436 6.10227 9.37646 5.67614 9.64067 5.3125C9.90771 4.94602 10.2657 4.66193 10.7145 4.46023C11.1662 4.25568 11.6705 4.15341 12.2273 4.15341C12.7898 4.15341 13.2898 4.25426 13.7273 4.45597C14.1648 4.65483 14.5114 4.92756 14.7671 5.27415C15.0256 5.62074 15.162 6.0142 15.1762 6.45455H14.1535ZM19.6758 13.1364C19.0849 13.1364 18.5664 12.9957 18.1204 12.7145C17.6772 12.4332 17.3306 12.0398 17.0806 11.5341C16.8335 11.0284 16.7099 10.4375 16.7099 9.76136C16.7099 9.07955 16.8335 8.48437 17.0806 7.97585C17.3306 7.46733 17.6772 7.07244 18.1204 6.79119C18.5664 6.50994 19.0849 6.36932 19.6758 6.36932C20.2667 6.36932 20.7837 6.50994 21.2269 6.79119C21.673 7.07244 22.0195 7.46733 22.2667 7.97585C22.5167 8.48437 22.6417 9.07955 22.6417 9.76136C22.6417 10.4375 22.5167 11.0284 22.2667 11.5341C22.0195 12.0398 21.673 12.4332 21.2269 12.7145C20.7837 12.9957 20.2667 13.1364 19.6758 13.1364ZM19.6758 12.233C20.1247 12.233 20.494 12.1179 20.7837 11.8878C21.0735 11.6577 21.288 11.3551 21.4272 10.9801C21.5664 10.6051 21.636 10.1989 21.636 9.76136C21.636 9.32386 21.5664 8.91619 21.4272 8.53835C21.288 8.16051 21.0735 7.85511 20.7837 7.62216C20.494 7.3892 20.1247 7.27273 19.6758 7.27273C19.2269 7.27273 18.8576 7.3892 18.5678 7.62216C18.2781 7.85511 18.0636 8.16051 17.9244 8.53835C17.7852 8.91619 17.7156 9.32386 17.7156 9.76136C17.7156 10.1989 17.7852 10.6051 17.9244 10.9801C18.0636 11.3551 18.2781 11.6577 18.5678 11.8878C18.8576 12.1179 19.2269 12.233 19.6758 12.233ZM26.956 13.1364C26.365 13.1364 25.8466 12.9957 25.4006 12.7145C24.9574 12.4332 24.6108 12.0398 24.3608 11.5341C24.1136 11.0284 23.99 10.4375 23.99 9.76136C23.99 9.07955 24.1136 8.48437 24.3608 7.97585C24.6108 7.46733 24.9574 7.07244 25.4006 6.79119C25.8466 6.50994 26.365 6.36932 26.956 6.36932C27.5469 6.36932 28.0639 6.50994 28.5071 6.79119C28.9531 7.07244 29.2997 7.46733 29.5469 7.97585C29.7969 8.48437 29.9219 9.07955 29.9219 9.76136C29.9219 10.4375 29.7969 11.0284 29.5469 11.5341C29.2997 12.0398 28.9531 12.4332 28.5071 12.7145C28.0639 12.9957 27.5469 13.1364 26.956 13.1364ZM26.956 12.233C27.4048 12.233 27.7741 12.1179 28.0639 11.8878C28.3537 11.6577 28.5682 11.3551 28.7074 10.9801C28.8466 10.6051 28.9162 10.1989 28.9162 9.76136C28.9162 9.32386 28.8466 8.91619 28.7074 8.53835C28.5682 8.16051 28.3537 7.85511 28.0639 7.62216C27.7741 7.3892 27.4048 7.27273 26.956 7.27273C26.5071 7.27273 26.1378 7.3892 25.848 7.62216C25.5582 7.85511 25.3437 8.16051 25.2045 8.53835C25.0653 8.91619 24.9957 9.32386 24.9957 9.76136C24.9957 10.1989 25.0653 10.6051 25.2045 10.9801C25.3437 11.3551 25.5582 11.6577 25.848 11.8878C26.1378 12.1179 26.5071 12.233 26.956 12.233ZM32.5827 9.0625V13H31.577V6.45455H32.5486V7.47727H32.6338C32.7872 7.14489 33.0202 6.87784 33.3327 6.67614C33.6452 6.47159 34.0486 6.36932 34.5429 6.36932C34.9861 6.36932 35.3739 6.46023 35.7063 6.64205C36.0387 6.82102 36.2972 7.09375 36.4818 7.46023C36.6665 7.82386 36.7588 8.28409 36.7588 8.84091V13H35.7532V8.90909C35.7532 8.39489 35.6196 7.99432 35.3526 7.70739C35.0855 7.41761 34.7191 7.27273 34.2532 7.27273C33.9321 7.27273 33.6452 7.34233 33.3924 7.48153C33.1424 7.62074 32.9449 7.82386 32.8 8.09091C32.6551 8.35795 32.5827 8.68182 32.5827 9.0625Z"
      fill="black"
    />
  </svg>