    <svg
      width="30"
      height="30"
      viewBox="0 0 30 30"
      fill="none"
      xmlns="http://www.w3.org/2000/svg"
    >
      <path
        d="M20 4.3347C21.8521 5.25514 23.125 7.16642 23.125 9.375C23.125 11.5836 21.8521 13.4949 20 14.4153M22.5 20.958C24.3893 21.8129 26.0907 23.2062 27.5 25M2.5 25C4.93311 21.9032 8.23647 20 11.875 20C15.5135 20 18.8169 21.9032 21.25 25M17.5 9.375C17.5 12.4816 14.9816 15 11.875 15C8.7684 15 6.25 12.4816 6.25 9.375C6.25 6.2684 8.7684 3.75 11.875 3.75C14.9816 3.75 17.5 6.2684 17.5 9.375Z"
        stroke="white"
        stroke-width="2"
        stroke-linecap="round"
        stroke-linejoin="round"
      />
    </svg>